<svg id="txt" xmlns="http://www.w3.org/2000/svg" viewBox="0 0 241.41 63.6"><defs><style>.cls-1{fill:#fff;}.cls-2,.cls-4,.cls-5{fill:#57ad57;}.cls-2{fill-rule:evenodd;}.cls-3{fill:#6cb76c;}.cls-4,.cls-5{stroke:#57ad57;stroke-miterlimit:10;}.cls-4{stroke-width:0.64px;}.cls-5{font-size:35px;stroke-linecap:round;stroke-width:0.2px;font-family:Bahagia;}</style></defs><title>Artboard 5</title><path class="cls-1" d="M45.52,45.39h0a3.2,3.2,0,0,1-3.28-3.09h0c0-1.7,6.89-3.09,8.7-3.09H45.52a3.2,3.2,0,0,1,3.29,3.09h0A3.2,3.2,0,0,1,45.52,45.39Z"/><path class="cls-2" d="M9,57.89C-6.34,55.34,71.14,36.24,143.67,44.23c31.68,3.49,81.68,7.42,91-1.86,5.26-5.26,1.86-10.92,1.42-11,1.71.25,4.21,6.6,3.43,10.24-2.26,10.52-20.2,15.71-89.46,10-40-3.32-81.56,2.56-99.78,5.94C38.74,59.68,13,58.55,9,57.89Z"/><path class="cls-3" d="M9,57.85c.45.06.9.15,1.35.19l.44-.06C10.18,58,9.59,57.9,9,57.85Z"/><path class="cls-3" d="M15.4,58.74l2.34.06c-1.32-.36.47-.17-3.15-.58a27.72,27.72,0,0,0-3.74,0c.91.08,2.27.06,3.62.17-.58.06-2,0-2.74,0,2.19.25,1.4,0,3.81.21Z"/><path class="cls-3" d="M18.18,58.57c-.22,0-.44.08-.41.13C18,58.66,19.13,58.63,18.18,58.57Z"/><path class="cls-3" d="M19.59,58.59c1.47.07,0,.11.12.13l1.69-.14Z"/><path class="cls-3" d="M25.72,58.76h.69A3.19,3.19,0,0,0,25.72,58.76Z"/><path class="cls-3" d="M28.73,58.77a21.32,21.32,0,0,0-2.32,0l.09,0c.85.07.05.19-1.31.13s-1.3-.12-2.54-.07l1.69.15A41.92,41.92,0,0,0,28.73,58.77Z"/><path class="cls-3" d="M25.72,58.76h-.8A7,7,0,0,0,25.72,58.76Z"/><polygon class="cls-3" points="22.64 58.68 21.88 58.69 22.06 58.75 22.64 58.68"/><path class="cls-3" d="M33.75,58.74c-.34.2-3.59,0-4,.15,2,0,3.58.11,3.15.21L35.1,59C35.83,58.92,34.9,58.8,33.75,58.74Z"/><path class="cls-3" d="M38.06,59.1a3.67,3.67,0,0,1,.51-.05A3,3,0,0,0,38.06,59.1Z"/><path class="cls-3" d="M49.11,57.86c-.84.17-1.69.31-2.53.43s-1.7.24-2.55.33a6.75,6.75,0,0,1,1.44-.26c-2.27.16-2.55.32-4.42.4-.58-.12,3.3-.22,2.21-.31-1.32.11-3.29.22-4.34.41l-2.1,0,.72.16c.85,0,1.7-.2,2.23-.1.27.07-.58.13-1.18.16,1.36-.08,3.71,0,6.46-.27C48,58.43,47.24,58.24,49.11,57.86Z"/><polygon class="cls-3" points="49.35 58.03 49.69 58.05 49.44 57.99 49.35 58.03"/><path class="cls-3" d="M54.81,56.83l-2.61.58a5,5,0,0,1-.64,0c.12,0-.58.22-.46.24a42.07,42.07,0,0,0,4.6-.89c3.75-.55-.15.12,1.33,0l-2.54.36c2.31-.2,5.15-.84,6.61-1.1a12.37,12.37,0,0,0-1.35.15l1.51-.29A54.7,54.7,0,0,0,54.81,56.83Z"/><path class="cls-3" d="M50.12,57.66a11.46,11.46,0,0,1,1.43-.23A5.88,5.88,0,0,0,50.12,57.66Z"/><path class="cls-3" d="M61.9,56a7.37,7.37,0,0,0-.8.13Z"/><path class="cls-3" d="M60.36,56l1.85-.27-.73,0A9.25,9.25,0,0,0,60.36,56Z"/><path class="cls-3" d="M131.56,51.11a11.12,11.12,0,0,0-2.3-.13c.18-.09,2.05,0,2.92-.07-1.9-.1,0-.11-.44-.21-2.13,0-3.08,0-5.36,0,.12,0,.08-.07-.22-.1-2.74.06-7.38.17-10.06.19s-4.48.12-7.31.3c-9.31.35-19,1.19-29,2.2l-1.39.34a18.64,18.64,0,0,1-2.09.13c.54,0,1.06-.12,1.71-.2-2.15.09-5.65.68-8.2,1,.3,0,.73.1,0,.23.17-.24-3,.4-3.79.29-2.55.3-.07.18-2.72.53-.27.16,2.54-.3,3-.28a22.33,22.33,0,0,0-2.26.41c4.25-.59,12.12-1.86,18.65-2.59l-.68.18c3.33-.45,8.75-.94,11.44-1-.64-.06,4.94-.32,4.43-.52.85,0,1.1,0,2.31-.08l.33-.1c1.71-.1,1.45,0,3.41-.09-1.29,0,.14-.14.71-.26h6.92a5.59,5.59,0,0,0-1-.07,4.22,4.22,0,0,0,1.49-.17c1.31-.06,1.19.1,1.13.16,2.41,0,3.49-.3,5.3-.26l-.64-.09c2.49-.1,4.58,0,7.34,0,1.32.14-2.26.13-3.4.2.56,0,1.74,0,2.12.08,1.18-.07,3.14-.21,4.61-.24C127.13,51,130.62,51.09,131.56,51.11Z"/><path class="cls-3" d="M123.91,51.13l-.79.06.92,0S124,51.14,123.91,51.13Z"/><path class="cls-3" d="M131.56,51.11l.06,0C131.89,51.13,131.8,51.12,131.56,51.11Z"/><path class="cls-3" d="M115.75,50.79h0Z"/><path class="cls-3" d="M113.7,51.33c-.53,0-1.26,0-2.09,0A13.8,13.8,0,0,0,113.7,51.33Z"/><path class="cls-3" d="M96.94,52.09c-.51,0-.22.06-.58.12C97.43,52.14,97.78,52.08,96.94,52.09Z"/><path class="cls-3" d="M126.92,51.15c.7,0,1.4,0,2.1,0l.77,0C128.83,51.13,127.88,51.12,126.92,51.15Z"/><path class="cls-3" d="M169.26,53c-1.84-.23-4.55-.34-6.81-.52-4.17-.23-.55.25-4.5,0l.7-.21c-4-.27-9.55-.81-12.91-.78-.3,0-1-.14,0-.1-2.63-.16-1.38.23-4.9,0,3.3,0-1.07-.2-.16-.33h.52l-6.67-.18c-.06.06,1.22.19-.75.16.79,0,.47.1.4.17,2,0,3.15.09,4.39,0,1.14.14-.77,0,.37.13h1.65c1.2.07-1.25,0,.63.13a23.34,23.34,0,0,1,3.21.09H144c1.13,0,2.71.19,2.18,0l1.32.23-.23-.11c3.08.24,4.21.59,8.2.78-.95-.11-.07-.09.44-.07-1.66-.2-2.05-.09-3.62-.2-.23-.12,2.45,0,.55-.24a44.9,44.9,0,0,1,4.83.61c2.51.2,3.48.16,6,.39l-.08,0c.48-.13,2.08.21,4,.17L166.3,53a8.08,8.08,0,0,1,1.64,0c-.1,0-.1,0,.2.07.28-.1,3.17,0,3.54,0-1.22-.09-2.71-.07-4.14-.13A7.11,7.11,0,0,1,169.26,53Z"/><path class="cls-3" d="M143.22,51.53H144A5.37,5.37,0,0,0,143.22,51.53Z"/><path class="cls-3" d="M180.7,53.75c1.61.09-.44.09,1.06.2,1.65,0-1.87-.25-.26-.3,1,.11,2.6.05,3.25.06-.72,0-.31.22,0,.26.63,0,2,.1,3.09.14-2.61-.18,2.19,0-.16-.17a23.44,23.44,0,0,1,3.63,0,9.5,9.5,0,0,1-1.55,0c-.54.12,1.66.1,2,.23,2.49-.1,10.45-.14,8.19-.42-.85,0-1.58,0-2.5,0,2.59,0,0,.15-.2.21a17.8,17.8,0,0,1-2.56-.08l1.75-.09c-5.61-.06-13.28-.27-19.72-.56l2.78.14a26.16,26.16,0,0,1-2.67,0l1.35.26a6.5,6.5,0,0,1-1.5-.13c-1,0-.53.1.05.2-2.08-.08-2.42-.16-4-.13,3.45.34,2.93,0,6.88.35Z"/><polygon class="cls-3" points="173.11 53.49 173.95 53.44 172.67 53.41 173.11 53.49"/><path class="cls-3" d="M174.45,53.14s-.47,0-.43.08C175.64,53.33,175.45,53.27,174.45,53.14Z"/><path class="cls-3" d="M193.91,54.21H196l-1.36-.05A2.58,2.58,0,0,1,193.91,54.21Z"/><path class="cls-3" d="M208.52,53.49c-2.89.15-4.12.28-7.39.24-1.6.14.75.22.07.34,1.62,0,1.42-.21,3.1-.29.62.1,2.45-.1,4.06-.14C208.16,53.6,208.16,53.55,208.52,53.49Z"/><path class="cls-3" d="M218.49,53.07c1.32-.15,2.62-.46,3.67-.57a8.5,8.5,0,0,1-1.71.35,23.7,23.7,0,0,0,2.87-.41c-.12,0-.64.08-.25,0a20.77,20.77,0,0,0,2.85-.64c.62-.17,1.37-.33,3.59-1,.63-.23,1.24-.48,1.1-.54,1.25-.4,1.55-.54,1.92-.67a13.25,13.25,0,0,0,2.21-1.08c-.13,0-1.11.43-1.15.31a11.79,11.79,0,0,0,3.47-2.52,12.29,12.29,0,0,0,1.78-2.53,6.08,6.08,0,0,1-.72,1.29c.41-.18,1.26-2.1,1.5-3.68l.12.18a15.35,15.35,0,0,0-.65-5.84c.06.13.14.25.2.38a18,18,0,0,0-1.12-2.67,8.45,8.45,0,0,0-.8-1.27,2.33,2.33,0,0,0-1.28-.95h0l0,.28c0,.24,0,.17,0,.18s0,0,0,0l.1.12.19.29c.11.21.23.41.32.63a8,8,0,0,1,.44,1.3,9,9,0,0,1,.23,2.53,8.92,8.92,0,0,1-.4,1.62c-.31,1-.43,1.25-.35,1.12a8.56,8.56,0,0,0,.48-1.22c.35-1.15.42-2.54.38-.94a7.84,7.84,0,0,0-.46,1.54,7.58,7.58,0,0,1-1.48,2.73c-.44.4,0-.06.31-.59s.59-1,.24-.5a4.25,4.25,0,0,1-.53.88c-.26.33-.62.71-1.06,1.19.06-.14-.46.29-.93.68s-1,.6-.7.33a17.92,17.92,0,0,1-4.14,2l-3,.74c2.45-.59-.63.38,2.14-.25a17,17,0,0,0,6.87-3.44,10.88,10.88,0,0,0,2.41-3.62,8.4,8.4,0,0,0,.49-4.1c-.19-.45-.56-2.64-1.52-3.38v.06c.15,0,.3.06.4.11s.33.39.36.53a7.31,7.31,0,0,1,.76,1c.06.07,0-.08-.14-.31-.23-.45-.78-1.06-.48-.78a4.28,4.28,0,0,1,1.16,2.18c.87,2.18.16.21.68,1.31.1.51.17,1,.23,1.53a9.9,9.9,0,0,1,0,5.78,10.15,10.15,0,0,1-3.87,5,22.21,22.21,0,0,1-6,2.85,43.66,43.66,0,0,1-6.33,1.51h.65c-3.77.63-6.3,1.25-9.71,1.28l-1.14.2c.62-.11-.67-.14.32-.3-1,.13-2.14.15-3.22.24l1.91,0a16,16,0,0,1-3.25.14c-2.85.26,1.7.14,2.34.19,4-.52,4.07,0,7.9-.59C221,52.86,218.35,53.15,218.49,53.07Z"/><path class="cls-3" d="M213.5,53.23l-.57.08Z"/><path class="cls-3" d="M225.67,46.15c-.29.08-.64.13-1.1.23S224.8,46.36,225.67,46.15Z"/><path class="cls-3" d="M208.36,53.64h0Z"/><polygon class="cls-3" points="206.46 54.02 207.53 53.98 207.34 53.94 206.46 54.02"/><path class="cls-3" d="M214.5,47.46v.07C214.59,47.5,214.63,47.47,214.5,47.46Z"/><path class="cls-3" d="M184,47.34l.67,0C184.46,47.35,184.22,47.34,184,47.34Z"/><path class="cls-3" d="M110.91,42.17c-2,0-4.65,0-6.12.16l.14-.06c-1.06,0-4.51.17-2.28.27l.53-.06a26.57,26.57,0,0,1,3.81.14c2.38,0,3.75-.27,5.86-.17.92,0,.77.07.5.11,2.12.06,3-.11,4.4-.09.57.51,6.51.08,9.61.6l7.15.4c-1.35,0,2.36.2,1.8.3.74-.26,7.21.81,7.69.51,3.4.47.14,0,4.07.5a6.09,6.09,0,0,1-.94-.05c1.55.24,2.41.1,3.69.4,3.14.34.54-.05,2.42,0a30.58,30.58,0,0,1,4.14.65,32.76,32.76,0,0,1,3.87.17c-.4,0-2.63-.28-1.16-.21,3.81.37,3.06.16,6.64.41,1.79.34-3.56-.29-.44.12-2.27-.1-4-.25-5.2-.22,3,.28,6.73.56,10,.72,1.84.17-.95,0,.49.15,3.29.33,5.07.16,7.69.41l-.55.06c1.6,0,5.8.37,8.86.43-.39-.07-.64-.12-.24-.13-.06.25,4.25,0,7.26.29-.24-.17,2.69-.18,4.54-.19.65.05.51.11.5.15-3-.11-2.93.14-5.34.17,2,0,5.3.1,7,0l-.68.12c2.77,0,2.42-.27,5.32-.2l-.29.09c5.82-.08,12.69-.39,17.27-1.38.39-.13-2,0-2.08,0-2.75.4-4.33.69-6.45.9l0-.14c-.47.14-3,.34-1.61.34-1.73.16-1.32,0-3.3.11.16-.15,1.34-.22,1.35-.35-.57.06-1.15.11-1.73.15.55-.08-1,0-.51-.1-3.2.29-4.47,0-7.78.13l1.84,0a11,11,0,0,1-1.87.11,27.51,27.51,0,0,0-3.14-.18c-1.47,0-2.29.17-4.27.12.42-.15-3.29-.18-3.66-.34-.43.15-3.84-.1-4.12,0a11.75,11.75,0,0,1-2.5-.19l.8,0L183,47.27a.92.92,0,0,1,.19,0,20.07,20.07,0,0,1-2.18-.09,9.75,9.75,0,0,1,1.22,0c-2.51-.16-4.42,0-6.49-.3-.42.05-3.32-.15-2.71.06a12.62,12.62,0,0,0-2.59-.36c-1.22,0-2.36-.24-4-.27,2.15,0,0,0,1.89,0-1.43-.18-3.59-.16-6.09-.41-.25-.06-.24-.1-.49-.15a16.41,16.41,0,0,1-2.91-.22l.1.11c-1.69-.2-4.07-.4-5.89-.69l-2.15,0a73.38,73.38,0,0,0-9-.8l-1.71-.2a4.73,4.73,0,0,1-.9-.15l1.14.05a31.58,31.58,0,0,0-4.31-.36,19.32,19.32,0,0,1-2.33-.32c-3.22,0-9.48-.78-10.47-.47l6.32.41a5.43,5.43,0,0,1-1.08,0c-2.51-.13-3.8-.32-6.32-.38l.31-.2C118.23,42.09,114.29,42.52,110.91,42.17Z"/><path class="cls-3" d="M143.13,44l-1.81-.3.18.11A15.86,15.86,0,0,1,143.13,44Z"/><path class="cls-3" d="M141.5,43.84l-1.07-.06,1.12.09Z"/><path class="cls-3" d="M103.63,42.19c-.4,0-1.19,0-2,0C102.16,42.23,103.22,42.22,103.63,42.19Z"/><polygon class="cls-3" points="101.5 42.27 102.42 42.3 102.55 42.27 101.5 42.27"/><path class="cls-3" d="M48.24,46.53l-2.88.55c-.52,0-3.79.6-2.75.32-1.7.42-5.46.9-4,.89,8.45-1.53,20.25-2.93,30.15-4l-1.59.24c5.14-.66,7.08-.43,11.21-1.08l-.55.23c2.37-.12,4.51-.57,7-.5l-.25-.07,1.58,0-.27,0c1.72-.16,2.79-.2,4.5-.22a8.78,8.78,0,0,1-1.33.1c.79,0,2.12-.16,3.45-.2,1,0,0,.08-.15.11,4-.22,5.79-.05,8.61-.37.27-.06-1-.08.42-.13-2.64-.05-4.77.11-7.16.26l.66,0c-1.89.32-1.44,0-4.5.21.81-.14,2.14-.19,2.66-.27-3.53-.08-5,.36-7.38.21l.26,0c-.52,0-1.46.1-2.25.17.26,0,1,0,1.58,0a7.9,7.9,0,0,0-1.47.27c-.91-.07-1.2.12-2.64.15-.52-.07,1.19-.17,1.73-.26l-1.72.18a14.48,14.48,0,0,1-2.36,0c-1.34.18.79,0-.29.2-1.7,0-9,.56-12.38,1,1.18-.13.41-.15,1.85-.27a14.32,14.32,0,0,0-2.38.34c-2.37.31-5.4.58-7.62.76h.65c-1.85.36-4.72.45-8,1h.07c-1.06.16-1.93.49-3.87.72C47.32,46.76,48.36,46.62,48.24,46.53Z"/><path class="cls-3" d="M36.75,48.54l1-.3a6.94,6.94,0,0,0-2.34.61c.78-.16,1.82-.29,1.95-.38A1.68,1.68,0,0,0,36.75,48.54Z"/><path class="cls-3" d="M15.11,53.38c-.4.15-.28.16-.45.25a111,111,0,0,1,12-3c1.55-.3,1.8-.53,3.75-1l.9-.06c1-.28,4.29-.75,3.11-.73-.12,0-.9.26-1.81.4l.13-.09-2.07.42.65-.21c-2.87.44-1.95.63-5.44,1.29v-.17c-2.32.5-3.48.83-5.53,1.23,0,0,0,.09.39,0s.89-.14.64,0c-3.45,1,.52-.24-1.93.31-1.47.43-3.6,1.06-5.54,1.7S10.19,55,9.41,55.32c.67-.25.53-.13,0,.13a8.74,8.74,0,0,0-1.84,1.22c-.18.18-.16.11-.05-.06a4.06,4.06,0,0,1,.51-.51,2.22,2.22,0,0,0-.73.63c-.12.19,0,.37.32.52-.2-.12-.24-.21-.23-.25s0,0,.1,0a5.53,5.53,0,0,0,1.54.37A5.48,5.48,0,0,1,7.8,57l-.18-.11,0,0h0a.56.56,0,0,1,.09-.14,8.09,8.09,0,0,1,2.14-1.35A35.66,35.66,0,0,1,15.11,53.38Z"/><path class="cls-3" d="M14,53.87a6.79,6.79,0,0,0,.66-.24l-1.54.49Z"/><path class="cls-4" d="M20,54.29c1-3.43,1-7.93.91-11.56-.07-2.91.09-6,0-6.24-.86-1.3-2.54-3.2-3.68-3.63a15.31,15.31,0,0,0-4.65-.81c-1.34,0-3.83.14-3.83.14A22.25,22.25,0,0,1,12,31.72a2.78,2.78,0,0,0,.62-.07,35.79,35.79,0,0,0-3.28-2.19,12.72,12.72,0,0,0-2.37-1.28,8.39,8.39,0,0,1,2.82,1.24c2.14,1.22,3.83,2.28,3.83,2.28a16.2,16.2,0,0,0,1.84.22l1.46.07a24.32,24.32,0,0,1-3.7-2.87c-2.06-1.92-6.44-7.46-6.44-7.46s1.63,1.75,3.38,3.68c1.9,2.09,3.07,3.12,3.07,3.12a15.51,15.51,0,0,1-.81-5.13c0-1.06,0-1.55,0-1.55a38.14,38.14,0,0,0,.91,5.73c.48,1.3,1.19,2.22,3.44,3.76A30.42,30.42,0,0,1,21,34.9s1-7.51.94-7.76a15,15,0,0,0-1.72-3.34,17.93,17.93,0,0,0-2-2.29A4.8,4.8,0,0,0,17,21.37a7.9,7.9,0,0,0-1.28.08,4.11,4.11,0,0,1,1-.15,9.53,9.53,0,0,1,1.27,0S16.38,20,14.17,18.26A16.23,16.23,0,0,1,11.63,16s1.38,1.1,2.72,2.14c.67.51,2.54,1.79,3.8,2.89a19.11,19.11,0,0,1,2.35,2.48,5.56,5.56,0,0,0,0-.63,6,6,0,0,1,.15-1.34s0,.71,0,1.41a4.9,4.9,0,0,0,.12.94c.44.79,1.26,2.22,1.26,2.22a28.61,28.61,0,0,0,.26-5.35,9.89,9.89,0,0,0-1.3-5,18.68,18.68,0,0,0-3.11-1.11s1.58.23,2,.33.79.23.79.23A28.55,28.55,0,0,0,18.82,13a8.17,8.17,0,0,0-3.21-2.07,14.81,14.81,0,0,0-1.75-.46l.64.08a6.71,6.71,0,0,1,1.13.25,1,1,0,0,0,.2-.32,3.38,3.38,0,0,0,.24-.85,3.1,3.1,0,0,1-.07.79,2.27,2.27,0,0,1-.19.42,8.51,8.51,0,0,1,3.3,2,15.25,15.25,0,0,1,3,3.94A14.19,14.19,0,0,1,23,13.52a16.38,16.38,0,0,1,1.49-2.39,8.89,8.89,0,0,0,.47-2.25s0,.93,0,1.27-.12.77-.12.77A12.75,12.75,0,0,1,26,9.79a6.81,6.81,0,0,1,1.76-.93,11.64,11.64,0,0,0-2.23,1.59,10.2,10.2,0,0,0-2.21,3.36,9.71,9.71,0,0,0-.7,3.56s1.25-.84,2.27-1.63a13,13,0,0,0,2.34-2.28c.22-.24.8-1.13.8-1.13A8.38,8.38,0,0,1,26.14,15c-1.23,1.32-2.63,2.22-3.34,3,0,0,.21,1.29.36,2.65s.25,2.83.25,2.83A27.51,27.51,0,0,1,26.48,20,11.23,11.23,0,0,1,29,18.18,22.44,22.44,0,0,0,26,21a17.89,17.89,0,0,0-2.44,3.63v1.95s1.92-1.77,3.35-2.8a13.37,13.37,0,0,1,3.28-1.82c.71-.31,1.8-.65,1.8-.65a28.92,28.92,0,0,1,1-4.36,29.33,29.33,0,0,1,2.7-5.08A31.78,31.78,0,0,0,33.38,17a23.26,23.26,0,0,0-.84,4.26,17.49,17.49,0,0,0,2.27-.71,5.81,5.81,0,0,0,2.6-1.84,4.07,4.07,0,0,1-1.56,1.61,12.91,12.91,0,0,1-2.93,1.24,13.46,13.46,0,0,0,2.88,0,9.67,9.67,0,0,0,2.53-.76,5.23,5.23,0,0,1-1.93.82c-1.38.42-3.61.16-4.13.26a13.08,13.08,0,0,0-4.81,2.25,13.43,13.43,0,0,0-3.91,3.58s-.5,4.45-.6,6.2a11.1,11.1,0,0,0,0,1.77,14.16,14.16,0,0,1,2.6-1.79c1.06-.56,3-1.44,4.18-2.08a8.3,8.3,0,0,0,2.64-2.59A5.61,5.61,0,0,0,33,27.44a6.81,6.81,0,0,1-.39,1.61A5.3,5.3,0,0,1,31.28,31l-.56.49a8.28,8.28,0,0,0,2.16-.64,23.89,23.89,0,0,0,2.68-1.44,19.87,19.87,0,0,0,1.75-1.31,6.62,6.62,0,0,0,.91-1,5,5,0,0,1-.78,1.07,13.75,13.75,0,0,1-1.82,1.58,27.91,27.91,0,0,1-2.55,1.52s1.5-.12,3-.38,2.77-.54,2.77-.54a40.8,40.8,0,0,1-4.24,1.06c-1.15.19-4.14,1.13-4.14,1.13a18.14,18.14,0,0,0,2,1.92,14.49,14.49,0,0,0,3.69,2.06,11,11,0,0,1-4.23-1.86,15.21,15.21,0,0,1-2-1.85s-2.43,1.28-3.72,2.1a8.46,8.46,0,0,0-3,3.2,41.6,41.6,0,0,0,.37,4.87c.34,1.57.7,3.78,1.21,6.17a29.41,29.41,0,0,1,.46,3.11,15.12,15.12,0,0,1,.1,2.91Z"/><path class="cls-4" d="M5.36,32.73s.37-.4.58-.58a3.42,3.42,0,0,1,1.2-.66,2.29,2.29,0,0,1,1.37,0,1.15,1.15,0,0,1,.6.55s-.82.09-1.49.2A14,14,0,0,0,6,32.61s1.47-.27,2.45-.34l.73,0a1.2,1.2,0,0,1-.17.41,1.43,1.43,0,0,1-.55.47,3.85,3.85,0,0,1-1.66.1A5,5,0,0,1,5.36,32.73Z"/><path class="cls-4" d="M3.51,27.1s.63-.21,1-.29a4.31,4.31,0,0,1,1.66,0,2.59,2.59,0,0,1,1.46.75,1.28,1.28,0,0,1,.31.91s-.92-.35-1.69-.6a16.27,16.27,0,0,0-2-.51s1.72.51,2.81,1c.42.17.79.36.79.36a1.32,1.32,0,0,1-.41.35,1.82,1.82,0,0,1-.86.19,4.51,4.51,0,0,1-1.83-.8A5.82,5.82,0,0,1,3.51,27.1Z"/><path class="cls-4" d="M3.71,18.55s.79.13,1.18.23a5,5,0,0,1,1.75.86,2.93,2.93,0,0,1,1.08,1.59,1.54,1.54,0,0,1-.21,1.12s-.75-.88-1.41-1.56a19.64,19.64,0,0,0-1.78-1.64s1.48,1.48,2.34,2.56c.33.41.61.81.61.81a1.7,1.7,0,0,1-.64.14,2.17,2.17,0,0,1-1-.28A5.1,5.1,0,0,1,4.2,20.54,6.64,6.64,0,0,1,3.71,18.55Z"/><path class="cls-4" d="M12.46,19.15s-.29.33-.42.52a2.68,2.68,0,0,0-.42,1,1.65,1.65,0,0,0,.14,1.07,1,1,0,0,0,.54.41s0-.65,0-1.18a10.28,10.28,0,0,1,.13-1.35s-.06,1.17,0,1.95c0,.29.05.57.05.57a1,1,0,0,0,.33-.17,1.09,1.09,0,0,0,.33-.49,2.77,2.77,0,0,0-.1-1.31A3.83,3.83,0,0,0,12.46,19.15Z"/><path class="cls-4" d="M14.35,21.79l.23-.27a1.45,1.45,0,0,1,.5-.33,1,1,0,0,1,.6-.05.52.52,0,0,1,.29.22l-.65.14a7.44,7.44,0,0,0-.72.22s.64-.16,1.07-.23l.31,0a.41.41,0,0,1-.05.19.63.63,0,0,1-.23.23A1.88,1.88,0,0,1,15,22,2.15,2.15,0,0,1,14.35,21.79Z"/><path class="cls-4" d="M9.06,14.08s.62,0,.94.05a3.84,3.84,0,0,1,1.46.48,2.38,2.38,0,0,1,1,1.1,1.21,1.21,0,0,1,0,.9s-.69-.6-1.29-1.06A16,16,0,0,0,9.6,14.48s1.34,1,2.15,1.73l.57.55a1.13,1.13,0,0,1-.48.18,1.68,1.68,0,0,1-.81-.1,4.15,4.15,0,0,1-1.34-1.28A5,5,0,0,1,9.06,14.08Z"/><path class="cls-4" d="M9.35,10.36s.6-.42.93-.6A4.82,4.82,0,0,1,12,9.22a3,3,0,0,1,1.8.35,1.49,1.49,0,0,1,.64.86s-1.1-.1-2-.12a20.15,20.15,0,0,0-2.29,0s2,0,3.3.19c.5.06,1,.14,1,.14a1.55,1.55,0,0,1-.33.49,1.88,1.88,0,0,1-.85.45A5,5,0,0,1,11,11.34,6.76,6.76,0,0,1,9.35,10.36Z"/><path class="cls-4" d="M16.09,14.44s.27-.15.41-.21a2.14,2.14,0,0,1,.76-.15,1.29,1.29,0,0,1,.73.23.58.58,0,0,1,.22.39s-.45-.09-.83-.14a9.14,9.14,0,0,0-1-.09s.83.11,1.37.23l.4.1A.62.62,0,0,1,18,15a.83.83,0,0,1-.37.15,2.44,2.44,0,0,1-.91-.23A2.74,2.74,0,0,1,16.09,14.44Z"/><path class="cls-4" d="M16.08,5.75s.4.52.58.81a3.9,3.9,0,0,1,.54,1.51,2.41,2.41,0,0,1-.29,1.58,1.43,1.43,0,0,1-.8.58s.07-1,.08-1.76a15.72,15.72,0,0,0-.1-2s0,1.75-.11,2.9c-.05.44-.12.84-.12.84a1.43,1.43,0,0,1-.47-.28A1.58,1.58,0,0,1,15,9.19a4.08,4.08,0,0,1,.24-1.94A5.7,5.7,0,0,1,16.08,5.75Z"/><path class="cls-4" d="M24.93,7.61s.16.2.23.31a1.58,1.58,0,0,1,.21.59,1,1,0,0,1-.11.61.52.52,0,0,1-.32.22s0-.37,0-.68a5.92,5.92,0,0,0,0-.78s0,.68-.05,1.13l0,.32a.41.41,0,0,1-.18-.11.51.51,0,0,1-.18-.28,1.64,1.64,0,0,1,.1-.75A2,2,0,0,1,24.93,7.61Z"/><path class="cls-4" d="M30.49,7.74s-.56-.14-.86-.18a3.72,3.72,0,0,0-1.42.09A2.29,2.29,0,0,0,27,8.4a1.13,1.13,0,0,0-.2.8s.76-.37,1.42-.64A14.27,14.27,0,0,1,29.9,8s-1.44.58-2.34,1c-.35.18-.66.37-.66.37a1.36,1.36,0,0,0,.38.27,1.55,1.55,0,0,0,.76.09,3.84,3.84,0,0,0,1.51-.83A5,5,0,0,0,30.49,7.74Z"/><path class="cls-4" d="M28.89,10.41s.08.36.11.54a2.44,2.44,0,0,1-.09.9,1.47,1.47,0,0,1-.53.75.88.88,0,0,1-.56.12s.27-.48.47-.89a10.94,10.94,0,0,0,.44-1.05s-.42.9-.76,1.46l-.26.41a.77.77,0,0,1-.23-.73,2.53,2.53,0,0,1,.59-.94A3.31,3.31,0,0,1,28.89,10.41Z"/><path class="cls-4" d="M31.71,16.59s-.61-.06-.92-.06a3.91,3.91,0,0,0-1.49.3,2.42,2.42,0,0,0-1.15,1,1.24,1.24,0,0,0-.09.88s.75-.51,1.39-.88a14.86,14.86,0,0,1,1.68-.87s-1.42.81-2.3,1.44c-.34.24-.64.48-.64.48a1.3,1.3,0,0,0,.45.22,1.7,1.7,0,0,0,.81,0A4.28,4.28,0,0,0,30.91,18,5.12,5.12,0,0,0,31.71,16.59Z"/><path class="cls-4" d="M37.55,9.26s-.64.22-1,.36a4.34,4.34,0,0,0-1.36,1,2.55,2.55,0,0,0-.7,1.5,1.37,1.37,0,0,0,.34.94s.51-.86,1-1.53a16.21,16.21,0,0,1,1.28-1.65s-1,1.47-1.63,2.51c-.22.4-.41.78-.41.78a1.41,1.41,0,0,0,.56,0,1.8,1.8,0,0,0,.82-.38,4.45,4.45,0,0,0,1-1.78A5.77,5.77,0,0,0,37.55,9.26Z"/><path class="cls-4" d="M38.82,16.41s.06.46.06.7a2.85,2.85,0,0,1-.24,1.14,1.83,1.83,0,0,1-.78.88,1.06,1.06,0,0,1-.72.07s.41-.57.72-1.06a11.23,11.23,0,0,0,.7-1.29s-.66,1.09-1.17,1.77c-.19.25-.39.48-.39.48a1.09,1.09,0,0,1-.19-.34,1.15,1.15,0,0,1,0-.61A3,3,0,0,1,37.7,17,4.56,4.56,0,0,1,38.82,16.41Z"/><path class="cls-4" d="M41,19s-.2.56-.34.83A3.62,3.62,0,0,1,39.79,21a2.46,2.46,0,0,1-1.39.59,1.33,1.33,0,0,1-.86-.3s.79-.43,1.42-.83a16.65,16.65,0,0,0,1.53-1.09s-1.37.89-2.34,1.39l-.71.34a1.12,1.12,0,0,1,0-.48,1.37,1.37,0,0,1,.35-.7,4.11,4.11,0,0,1,1.64-.81A5.67,5.67,0,0,1,41,19Z"/><path class="cls-4" d="M33.32,24.92s.25.41.36.63A3,3,0,0,1,34,26.71a1.89,1.89,0,0,1-.35,1.14,1,1,0,0,1-.64.36s.13-.7.2-1.28a11.75,11.75,0,0,0,.1-1.49s-.14,1.29-.32,2.12c-.07.32-.15.61-.15.61a1,1,0,0,1-.33-.24,1.26,1.26,0,0,1-.27-.57A3.32,3.32,0,0,1,32.54,26,4.3,4.3,0,0,1,33.32,24.92Z"/><path class="cls-4" d="M39.71,24.68a3.34,3.34,0,0,1,.1.65,3.12,3.12,0,0,1-.24,1.24,2.1,2.1,0,0,1-.84,1,1.19,1.19,0,0,1-.79.09s.44-.63.77-1.18a13.09,13.09,0,0,0,.75-1.41s-.7,1.2-1.25,1.94c-.21.28-.42.54-.42.54a1,1,0,0,1-.21-.37,1.26,1.26,0,0,1,0-.67,3.36,3.36,0,0,1,1-1.24A3.06,3.06,0,0,1,39.71,24.68Z"/><path class="cls-4" d="M41.93,29.16s-.32.48-.51.71a3.66,3.66,0,0,1-1.12.92,2.49,2.49,0,0,1-1.45.27,1.23,1.23,0,0,1-.75-.46s.85-.25,1.53-.5a13.41,13.41,0,0,0,1.69-.71s-1.49.56-2.52.83l-.75.18a1.2,1.2,0,0,1,.09-.47,1.44,1.44,0,0,1,.48-.58,4.23,4.23,0,0,1,1.74-.43A5.57,5.57,0,0,1,41.93,29.16Z"/><path class="cls-4" d="M39.9,37.65s-.64.23-1,.31a4.37,4.37,0,0,1-1.71,0,2.75,2.75,0,0,1-1.53-.76,1.36,1.36,0,0,1-.34-.94s1,.37,1.77.61a17.8,17.8,0,0,0,2.08.53s-1.79-.53-2.93-1c-.43-.18-.82-.37-.82-.37a1.35,1.35,0,0,1,.43-.36,1.76,1.76,0,0,1,.88-.2,4.71,4.71,0,0,1,1.91.82A5.89,5.89,0,0,1,39.9,37.65Z"/><text class="cls-5" transform="matrix(0.98, -0.19, 0.19, 0.98, 48.28, 37.9)">G</text><text class="cls-5" transform="matrix(0.99, -0.12, 0.12, 0.99, 68.3, 34.28)">r</text><text class="cls-5" transform="translate(78.7 32.94) rotate(-3.99)">ee</text><text class="cls-5" transform="matrix(1, -0.01, 0.01, 1, 94.31, 31.9)">n</text><text class="cls-5" transform="translate(110.29 31.87) rotate(4.02)">R</text><text class="cls-5" transform="matrix(1, 0.09, -0.09, 1, 128.97, 33.24)">o</text><text class="cls-5" transform="translate(139.9 34.28) rotate(5.93)">a</text><text class="cls-5" transform="matrix(0.99, 0.1, -0.1, 0.99, 152.23, 35.57)">d</text><text class="cls-5" transform="translate(169.52 37.37) rotate(5.01)">F</text><text class="cls-5" transform="translate(183.96 38.62) rotate(3.26)">a</text><text class="cls-5" transform="translate(197.04 39.32) rotate(0.64)">r</text><text class="cls-5" transform="matrix(1, -0.08, 0.08, 1, 209.39, 39.54)">m</text></svg>