<svg id="txt" xmlns="http://www.w3.org/2000/svg" viewBox="0 0 241.41 63.6"><defs><style>.cls-1{fill:#fff;}.cls-2,.cls-4,.cls-5{fill:#57ad57;}.cls-2{fill-rule:evenodd;}.cls-3{fill:#6cb76c;}.cls-4,.cls-5{stroke:#57ad57;stroke-miterlimit:10;}.cls-4{stroke-width:0.64px;}.cls-5{stroke-linecap:round;stroke-width:0.2px;}</style></defs><title>Artboard 5</title><path class="cls-1" d="M47.11,45.39h0a3.2,3.2,0,0,1-3.29-3.09h0c0-1.7,6.9-3.09,8.71-3.09H47.11A3.2,3.2,0,0,1,50.4,42.3h0A3.2,3.2,0,0,1,47.11,45.39Z"/><path class="cls-2" d="M10.57,57.89C-4.75,55.34,72.73,36.24,145.26,44.23c31.68,3.49,77.71,9,87-.27,5.26-5.26.27-10.92-.16-11,1.71.24,5,5.8,4.21,9.44-2.25,10.52-15.43,14.92-84.69,9.19-40-3.32-81.86,0-100.09,3.35C40,57.1,14.54,58.55,10.57,57.89Z"/><path class="cls-3" d="M10.58,57.85c.44,0,.88.13,1.33.14l.42-.08C11.74,57.92,11.16,57.89,10.58,57.85Z"/><path class="cls-3" d="M16.92,58.34l2.29-.11c-1.32-.27.45-.22-3.13-.35a32.35,32.35,0,0,0-3.67.26c.91,0,2.23-.09,3.57-.08-.57.11-2,.1-2.69.2,2.17.11,1.37-.06,3.75-.06Z"/><path class="cls-3" d="M19.62,58c-.21.06-.43.11-.39.16C19.45,58.06,20.56,58,19.62,58Z"/><path class="cls-3" d="M21,57.87c1.44,0,0,.11.13.12l1.63-.27Z"/><path class="cls-3" d="M27,57.56l.67-.06A2.61,2.61,0,0,0,27,57.56Z"/><path class="cls-3" d="M30,57.34a17.94,17.94,0,0,0-2.28.16h.1c.83,0,.06.19-1.28.23s-1.28,0-2.49.13l1.67,0A41.68,41.68,0,0,0,30,57.34Z"/><path class="cls-3" d="M27,57.56l-.79.06A5,5,0,0,0,27,57.56Z"/><polygon class="cls-3" points="24 57.72 23.26 57.79 23.44 57.83 24 57.72"/><path class="cls-3" d="M34.88,57c-.32.21-3.52.26-3.89.43,1.94-.15,3.51-.15,3.09,0l2.15-.24C36.93,57,36,56.94,34.88,57Z"/><path class="cls-3" d="M39.13,57l.49-.08A4.39,4.39,0,0,0,39.13,57Z"/><path class="cls-3" d="M49.91,55.36c-1.64.34-3.3.63-5,.9a5.52,5.52,0,0,1,1.41-.32c-2.22.25-2.49.41-4.32.59-.58-.1,3.23-.38,2.15-.41-1.29.15-3.21.38-4.24.62l-2.06.09.72.12a20.6,20.6,0,0,1,2.18-.23c.27.05-.56.15-1.14.23,1.32-.17,3.63-.22,6.31-.6S48.09,55.75,49.91,55.36Z"/><polygon class="cls-3" points="50.15 55.54 50.48 55.55 50.24 55.49 50.15 55.54"/><path class="cls-3" d="M55.52,54.37,53,54.93a3.4,3.4,0,0,1-.63,0c.12,0-.57.22-.45.24a43,43,0,0,0,4.52-.84c3.69-.46-.15.12,1.31.07-1,.15-1.08.11-2.51.31,2.28-.14,5.07-.73,6.51-.95a12.45,12.45,0,0,0-1.33.12l1.5-.25A47.22,47.22,0,0,0,55.52,54.37Z"/><path class="cls-3" d="M50.9,55.16a9.92,9.92,0,0,1,1.41-.22A5.55,5.55,0,0,0,50.9,55.16Z"/><path class="cls-3" d="M62.49,53.67c-.17,0-.44,0-.79.1A7.94,7.94,0,0,0,62.49,53.67Z"/><path class="cls-3" d="M61,53.65l1.83-.21h-.73A9.14,9.14,0,0,0,61,53.65Z"/><path class="cls-3" d="M131,50.87a10.27,10.27,0,0,0-2.25-.16c.17-.1,2,0,2.86,0-1.87-.12,0-.11-.43-.21-2.09-.09-3,0-5.26-.05.11,0,.07-.07-.22-.1-2.69,0-7.25,0-9.88,0s-4.41,0-7.19.11c-9.15.1-18.67.59-28.5,1.24l-1.37.29c-.48-.05-2.33.19-2.06,0,.53,0,1-.08,1.68-.13-2.11,0-5.56.47-8.07.67.29,0,.71.12,0,.22.17-.23-3,.31-3.73.17-2.51.22-.07.18-2.69.45-.26.14,2.51-.23,3-.19-.8.19-2.37.22-2.23.33C68.84,53,76.6,52.06,83,51.56l-.67.16c3.28-.33,8.61-.62,11.25-.56C93,51.07,98.49,51,98,50.8c.83,0,1.09,0,2.27,0l.33-.08c1.68,0,1.42.08,3.35,0-1.27-.07.14-.14.7-.24,2.22.05,4.81.13,6.79.2a5.59,5.59,0,0,0-1-.1,4,4,0,0,0,1.47-.12c1.29,0,1.16.12,1.1.18,2.37,0,3.44-.21,5.22-.13l-.64-.11c2.46,0,4.51.1,7.21.13,1.3.17-2.22.08-3.34.13.55,0,1.72.07,2.08.12l4.53-.16C126.68,50.75,130.11,50.81,131,50.87Z"/><path class="cls-3" d="M123.52,50.77l-.77,0h.9S123.63,50.79,123.52,50.77Z"/><path class="cls-3" d="M131,50.87l.06,0C131.36,50.89,131.27,50.88,131,50.87Z"/><path class="cls-3" d="M115.51,50.27h0Z"/><path class="cls-3" d="M113.49,50.76l-2.06-.09A10.34,10.34,0,0,0,113.49,50.76Z"/><path class="cls-3" d="M97,51c-.51,0-.21.06-.57.11C97.49,51.1,97.84,51.05,97,51Z"/><polygon class="cls-3" points="126.48 50.86 128.54 50.86 129.29 50.85 126.48 50.86"/><path class="cls-3" d="M168.06,52.8c-1.8-.25-4.46-.35-6.69-.55-4.08-.24-.53.24-4.41,0l.68-.21c-3.87-.31-9.37-.78-12.68-.77-.29-.06-1-.15,0-.11-2.59-.16-1.36.29-4.81,0,3.24,0-1.05-.21-.16-.32h.51c-2.2-.11-5.1-.16-6.55-.21-.06.07,1.19.22-.74.16.78,0,.46.1.39.17,2,0,3.1.07,4.32.06,1.11.15-.76,0,.36.13h1.61c1.18.08-1.22,0,.62.14a29.67,29.67,0,0,1,3.16.07h-.42c1.11,0,2.66.19,2.14,0l1.29.24-.21-.12c3,.27,4.13.57,8.05.77-.94-.11-.08-.09.42-.07-1.62-.2-2-.09-3.55-.2-.22-.12,2.41,0,.54-.24a40.31,40.31,0,0,1,4.74.62c2.47.21,3.42.15,5.93.4l-.08,0c.48-.12,2.05.23,3.92.19l-1.32-.13a7.05,7.05,0,0,1,1.61,0c-.1,0-.1,0,.19.07s3.12.08,3.48.06c-1.2-.09-2.66-.1-4.06-.17A7,7,0,0,1,168.06,52.8Z"/><path class="cls-3" d="M142.49,51.36h.8A6.57,6.57,0,0,0,142.49,51.36Z"/><path class="cls-3" d="M179.29,53.68c1.58.12-.43.08,1.05.21s-1.84-.26-.26-.3c1,.12,2.55.06,3.2.09-.72,0-.31.22,0,.26.61,0,2,.13,3,.17-2.56-.2,2.15,0-.16-.18a24.17,24.17,0,0,1,3.57,0,7.56,7.56,0,0,1-1.52,0c-.53.1,1.63.13,2,.25,2.45-.08,10.27,0,8.05-.3-.84,0-1.55,0-2.46,0,2.54.09,0,.15-.2.2A15.85,15.85,0,0,1,193,54l1.72-.07c-5.51-.14-13-.43-19.36-.77l2.73.16c-.32.06-1.62,0-2.62,0l1.32.27a6.57,6.57,0,0,1-1.47-.14c-1,0-.53.1,0,.2-2-.09-2.37-.19-4-.16,3.38.36,2.87.05,6.76.4Z"/><polygon class="cls-3" points="171.84 53.36 172.67 53.31 171.41 53.28 171.84 53.36"/><path class="cls-3" d="M173.16,53s-.46,0-.42.08C174.32,53.22,174.14,53.15,173.16,53Z"/><path class="cls-3" d="M192.26,54.29l2.05,0L193,54.24A2.7,2.7,0,0,1,192.26,54.29Z"/><path class="cls-3" d="M206.62,53.81c-2.84.1-4.05.21-7.26.1-1.57.12.73.24.06.35,1.6,0,1.4-.17,3.05-.23.61.09,2.41,0,4-.08C206.27,53.91,206.26,53.86,206.62,53.81Z"/><path class="cls-3" d="M216.42,53.61c1.29-.15,2.58-.38,3.61-.5a6.65,6.65,0,0,1-1.68.31,22.76,22.76,0,0,0,2.83-.34c-.12,0-.63.06-.25,0a23.91,23.91,0,0,0,2.81-.59c.6-.18,1.35-.31,3.53-1,.61-.25,1.22-.47,1.08-.53,1.22-.44,1.52-.55,1.87-.71a10.12,10.12,0,0,0,2.12-1.15c-.11,0-1.06.48-1.11.35a9.43,9.43,0,0,0,3.2-2.72,12.5,12.5,0,0,0,1.47-2.66,7.14,7.14,0,0,1-.56,1.34,8.52,8.52,0,0,0,1.16-3.74l.13.17a8.61,8.61,0,0,0-.32-2.76,20.17,20.17,0,0,0-1-2.85c.09.11.16.22.25.34a14.59,14.59,0,0,0-1.33-2.14,4.2,4.2,0,0,0-2.08-1.67h0V33c0,.06,0,.14,0,.17h0l0,0,.14.12.26.28c.16.21.33.41.47.63a8.36,8.36,0,0,1,.75,1.33,8.54,8.54,0,0,1,.71,2.69c0,.28,0,.55-.05.82l-.16.79-.24,1c-.07.16-.07.19,0,.13a6.39,6.39,0,0,0,.39-1.22c0-.3.11-.59.12-.86s0-.5,0-.64.07-.25.12.54a2.49,2.49,0,0,0-.15.57,6.55,6.55,0,0,1-.16,1A5.85,5.85,0,0,1,233,43.13c-.44.38,0-.05.31-.57s.6-1,.21-.51a3.33,3.33,0,0,1-.49.88c-.29.29-.59.71-1.06,1.14.05-.14-.44.31-.93.65s-1,.6-.68.33a17.49,17.49,0,0,1-4.09,2l-3,.68c2.42-.53-.63.35,2.11-.21a16.64,16.64,0,0,0,6.78-3.29,8.5,8.5,0,0,0,2.3-3.59,7.12,7.12,0,0,0,0-4c-.18-.25-.43-1-.85-1.76a5.09,5.09,0,0,0-1.32-1.66.47.47,0,0,0-.19-.2V33a1.94,1.94,0,0,1,.29.2,3.62,3.62,0,0,1,1,.74c.08.05,0-.08-.19-.27-.32-.39-1-.74-.67-.61a3.8,3.8,0,0,1,1.3,1.24c.26.36.35.61.29.57.64,1,.65,1,.64,1s-.08-.3.24.2a11.21,11.21,0,0,1,.46,1.46A8.24,8.24,0,0,1,236,43.1,10.77,10.77,0,0,1,234.8,46a11.2,11.2,0,0,1-2.1,2.41,17.9,17.9,0,0,1-5.79,3,39.49,39.49,0,0,1-6.23,1.4l.64,0c-3.72.54-6.21,1.12-9.56,1.06l-1.13.18c.62-.09-.66-.16.32-.29-1,.09-2.1.1-3.16.18.63,0,1.25,0,1.88,0a13.09,13.09,0,0,1-3.2.07c-2.8.21,1.67.18,2.3.25a34,34,0,0,1,3.94-.21,22.66,22.66,0,0,0,3.83-.21C218.87,53.43,216.28,53.71,216.42,53.61Z"/><path class="cls-3" d="M211.52,53.66l-.57.07Z"/><path class="cls-3" d="M223.25,47.68l-1.08.2C221.81,48,222.39,47.85,223.25,47.68Z"/><path class="cls-3" d="M206.46,54h0Z"/><polygon class="cls-3" points="204.58 54.31 205.64 54.29 205.45 54.24 204.58 54.31"/><path class="cls-3" d="M212.25,48.69v.07C212.34,48.73,212.38,48.71,212.25,48.69Z"/><path class="cls-3" d="M182.32,47.68l.65.06C182.76,47.71,182.53,47.69,182.32,47.68Z"/><path class="cls-3" d="M110.57,42.15c-2,0-4.57.07-6,.19l.14-.06c-1,0-4.44.19-2.25.28l.53-.06a26.07,26.07,0,0,1,3.74.12c2.33,0,3.68-.28,5.75-.2.9,0,.76.07.49.11,2.08,0,2.9-.13,4.33-.11.55.5,6.38,0,9.44.53l7,.34c-1.33,0,2.32.18,1.77.28.73-.25,7.09.75,7.56.45,3.33.45.14,0,4,.49a5.7,5.7,0,0,1-.91,0c1.52.24,2.36.1,3.61.41,3.09.37.53,0,2.38.06a28.68,28.68,0,0,1,4.06.69,31.79,31.79,0,0,1,3.8.23c-.39-.05-2.58-.32-1.14-.23,3.74.43,3,.2,6.51.52,1.75.37-3.49-.35-.43.11-2.23-.14-3.9-.32-5.11-.31,3,.33,6.6.68,9.86.91,1.8.21-.93,0,.48.16,3.22.4,5,.27,7.54.59l-.55,0c1.58,0,5.69.52,8.69.65-.38-.08-.62-.13-.23-.13-.06.25,4.17.17,7.12.49-.23-.16,2.65-.11,4.46,0,.64.06.5.13.49.17-3-.22-2.89.06-5.25,0,2,0,5.2.25,6.92.19l-.68.1c2.72.11,2.39-.21,5.23,0l-.29.09c5.72.06,12.48,0,17-.9.38-.13-1.93,0-2,0-2.7.36-4.27.56-6.36.73l0-.14c-.47.13-3,.24-1.59.29-1.7.12-1.29-.08-3.25,0,.16-.16,1.33-.18,1.34-.31l-1.7.09c.54-.06-1,0-.49-.1-3.15.17-4.39-.1-7.65-.12l1.81.09a10.61,10.61,0,0,1-1.84,0c-.88-.15-1.41-.14-3.08-.27-1.44,0-2.25.11-4.2,0,.43-.13-3.22-.28-3.58-.44-.42.13-3.76-.21-4-.14a13,13,0,0,1-2.45-.26l.79,0-1-.08c.1,0,.07,0,.19,0a18.65,18.65,0,0,1-2.13-.15,8.78,8.78,0,0,1,1.19,0c-2.46-.24-4.33-.13-6.37-.47-.41,0-3.25-.22-2.66,0A11.58,11.58,0,0,0,169,46.6c-1.21,0-2.31-.29-3.89-.36,2.1.07,0,0,1.85,0-1.4-.2-3.52-.23-6-.52-.24-.06-.23-.1-.48-.16a15.93,15.93,0,0,1-2.86-.26l.1.12c-1.66-.24-4-.46-5.77-.77l-2.12,0a60.73,60.73,0,0,0-8.82-.79l-1.67-.18a5.1,5.1,0,0,1-.89-.14l1.12,0a30.76,30.76,0,0,0-4.23-.31,21.67,21.67,0,0,1-2.3-.3c-3.16,0-9.31-.71-10.28-.39l6.2.36c-.65,0-.14.1-1.06.06-2.46-.12-3.73-.3-6.2-.34l.29-.21C117.75,42,113.88,42.48,110.57,42.15Z"/><path class="cls-3" d="M142.22,43.77l-1.78-.29.18.12A13.08,13.08,0,0,1,142.22,43.77Z"/><path class="cls-3" d="M140.62,43.6l-1.05-.06c.39,0,.77.07,1.1.08Z"/><path class="cls-3" d="M103.41,42.21c-.39,0-1.17,0-2,0C102,42.25,103,42.24,103.41,42.21Z"/><polygon class="cls-3" points="101.33 42.3 102.23 42.32 102.36 42.29 101.33 42.3"/><path class="cls-3" d="M49,46.65l-2.83.55c-.51,0-3.72.59-2.7.31-1.66.42-5.37.9-4,.89,8.3-1.53,19.88-2.92,29.6-4l-1.55.23c5-.66,7-.42,11-1.08l-.53.22c2.32-.11,4.42-.57,6.86-.51l-.24-.07,1.55,0-.26,0c1.69-.16,2.74-.2,4.41-.23a7.13,7.13,0,0,1-1.3.1c.77,0,2.08-.16,3.39-.2,1,0,0,.08-.15.11,3.91-.23,5.69-.07,8.45-.41.27-.05-1-.07.41-.12-2.59,0-4.67.13-7,.28l.66,0c-1.86.33-1.42,0-4.42.22.79-.14,2.09-.19,2.61-.27-3.47-.07-5,.37-7.25.23l.26,0c-.52,0-1.43.1-2.22.17.26,0,1,0,1.56,0a7.75,7.75,0,0,0-1.45.27c-.89-.06-1.17.13-2.59.16-.51-.08,1.17-.18,1.7-.26l-1.69.18a14,14,0,0,1-2.32,0c-1.31.18.78,0-.28.2-1.67,0-8.79.58-12.16,1,1.17-.13.4-.15,1.82-.27a13.57,13.57,0,0,0-2.33.34c-2.34.31-5.31.58-7.49.77h.64c-1.81.35-4.64.45-7.86,1h.07c-1,.16-1.89.48-3.8.72C48.13,46.87,49.15,46.73,49,46.65Z"/><path class="cls-3" d="M37.75,48.64l1-.3a7,7,0,0,0-2.3.61c.77-.16,1.79-.29,1.91-.38A1.86,1.86,0,0,0,37.75,48.64Z"/><path class="cls-3" d="M16.51,53.44c-.4.15-.28.16-.44.24a112.72,112.72,0,0,1,11.75-3c1.52-.29,1.77-.52,3.68-.95l.89-.05c1-.28,4.21-.74,3-.73-.12,0-.89.26-1.78.4l.13-.1-2,.42.64-.21c-2.81.45-1.91.63-5.33,1.29l0-.17c-2.28.49-3.41.82-5.42,1.21,0,0,0,.09.38,0s.87-.14.63,0c-3.39,1,.5-.24-1.9.3-1.44.43-3.53,1.05-5.44,1.69s-3.61,1.29-4.37,1.59c.65-.25.51-.13,0,.13A8,8,0,0,0,9.18,56.7c-.16.16-.16.11-.06-.06a3,3,0,0,1,.49-.51,2.09,2.09,0,0,0-.7.63c-.09.18,0,.36.36.5C8.9,57,9,57,9.13,57a5.82,5.82,0,0,0,1.53.36A5.46,5.46,0,0,1,9.41,57a1,1,0,0,1-.22-.14l.07-.1a7.41,7.41,0,0,1,2.06-1.34A33.8,33.8,0,0,1,16.51,53.44Z"/><path class="cls-3" d="M15.42,53.93a4.36,4.36,0,0,0,.65-.25l-1.52.49Z"/><path class="cls-4" d="M22.37,54.29c1-3.43,1-7.93.9-11.56-.06-2.91.09-6,0-6.24-.86-1.3-2.54-3.2-3.68-3.63a15.26,15.26,0,0,0-4.65-.81c-1.34,0-3.83.14-3.83.14a22.25,22.25,0,0,1,3.26-.47,2.78,2.78,0,0,0,.62-.07,35.79,35.79,0,0,0-3.28-2.19A12.72,12.72,0,0,0,9.3,28.18a8.39,8.39,0,0,1,2.82,1.24C14.26,30.64,16,31.7,16,31.7a16.2,16.2,0,0,0,1.84.22l1.46.07a24.32,24.32,0,0,1-3.7-2.87c-2.06-1.92-6.44-7.46-6.44-7.46s1.63,1.75,3.38,3.68c1.9,2.09,3.07,3.12,3.07,3.12a15.51,15.51,0,0,1-.81-5.13c0-1.06,0-1.55,0-1.55a37.19,37.19,0,0,0,.92,5.73c.47,1.3,1.18,2.22,3.43,3.76a30.42,30.42,0,0,1,4.25,3.63s1-7.51.94-7.76a15,15,0,0,0-1.72-3.34,17.07,17.07,0,0,0-2-2.29,4.72,4.72,0,0,0-1.16-.14,7.9,7.9,0,0,0-1.28.08,4.11,4.11,0,0,1,1-.15,9.53,9.53,0,0,1,1.27,0S18.76,20,16.55,18.26A16.23,16.23,0,0,1,14,16l2.72,2.14c.67.51,2.54,1.79,3.8,2.89a19.11,19.11,0,0,1,2.35,2.48,5.56,5.56,0,0,0,0-.63A6,6,0,0,1,23,21.54s0,.71,0,1.41a4.9,4.9,0,0,0,.12.94c.44.79,1.26,2.22,1.26,2.22a27.67,27.67,0,0,0,.26-5.35,9.89,9.89,0,0,0-1.3-5,18.68,18.68,0,0,0-3.11-1.11s1.58.23,2,.33.79.23.79.23A28.55,28.55,0,0,0,21.2,13,8.17,8.17,0,0,0,18,10.92a14.27,14.27,0,0,0-1.75-.46l.65.08a6.74,6.74,0,0,1,1.12.25,1,1,0,0,0,.2-.32,3.38,3.38,0,0,0,.24-.85,3.1,3.1,0,0,1-.07.79,1.7,1.7,0,0,1-.19.42,8.44,8.44,0,0,1,3.3,2,15.25,15.25,0,0,1,3,3.94,14.19,14.19,0,0,1,.85-3.25,17.33,17.33,0,0,1,1.49-2.39,8.89,8.89,0,0,0,.47-2.25s0,.93,0,1.27-.12.77-.12.77a12.75,12.75,0,0,1,1.18-1.13,6.81,6.81,0,0,1,1.76-.93,11.64,11.64,0,0,0-2.23,1.59,10.2,10.2,0,0,0-2.21,3.36A9.55,9.55,0,0,0,25,17.37s1.24-.84,2.27-1.63a13.15,13.15,0,0,0,2.33-2.28c.22-.24.8-1.13.8-1.13A8.38,8.38,0,0,1,28.52,15c-1.23,1.32-2.63,2.22-3.34,3,0,0,.21,1.29.36,2.65s.26,2.83.26,2.83A27,27,0,0,1,28.86,20a11.23,11.23,0,0,1,2.47-1.82,22.44,22.44,0,0,0-3,2.79,17.89,17.89,0,0,0-2.44,3.63v1.95s1.92-1.77,3.35-2.8a13.56,13.56,0,0,1,3.28-1.82c.71-.31,1.8-.65,1.8-.65a28.92,28.92,0,0,1,1-4.36,29.33,29.33,0,0,1,2.7-5.08A31.78,31.78,0,0,0,35.76,17a23.26,23.26,0,0,0-.84,4.26,17.49,17.49,0,0,0,2.27-.71,5.81,5.81,0,0,0,2.6-1.84,4.07,4.07,0,0,1-1.56,1.61,13,13,0,0,1-2.92,1.24,13.41,13.41,0,0,0,2.88,0,9.68,9.68,0,0,0,2.52-.76,5.1,5.1,0,0,1-1.93.82c-1.37.42-3.61.16-4.13.26a13,13,0,0,0-4.8,2.25,13.32,13.32,0,0,0-3.92,3.58s-.5,4.45-.6,6.2a13.11,13.11,0,0,0,0,1.77,14.16,14.16,0,0,1,2.6-1.79c1.06-.56,3.05-1.44,4.18-2.08a8.3,8.3,0,0,0,2.64-2.59,5.34,5.34,0,0,0,.67-1.71A6.81,6.81,0,0,1,35,29.05,5.3,5.3,0,0,1,33.66,31c-.2.19-.56.49-.56.49a8.28,8.28,0,0,0,2.16-.64,23.89,23.89,0,0,0,2.68-1.44,18.5,18.5,0,0,0,1.75-1.31,7.22,7.22,0,0,0,.92-1,5.31,5.31,0,0,1-.79,1.07A13.75,13.75,0,0,1,38,29.7a27.91,27.91,0,0,1-2.55,1.52s1.5-.12,3-.38,2.77-.54,2.77-.54A40.08,40.08,0,0,1,37,31.36c-1.15.19-4.14,1.13-4.14,1.13a17.75,17.75,0,0,0,2,1.92,14.34,14.34,0,0,0,3.68,2.06,11,11,0,0,1-4.23-1.86,16.07,16.07,0,0,1-2.05-1.85S29.8,34,28.51,34.86a8.46,8.46,0,0,0-3,3.2,39.71,39.71,0,0,0,.38,4.87c.33,1.57.69,3.78,1.2,6.17a29.41,29.41,0,0,1,.46,3.11,15.71,15.71,0,0,1,.11,2.91Z"/><path class="cls-4" d="M7.74,32.73a8.25,8.25,0,0,1,.59-.58,3.36,3.36,0,0,1,1.19-.66,2.29,2.29,0,0,1,1.37,0,1.15,1.15,0,0,1,.6.55s-.82.09-1.48.2a13.92,13.92,0,0,0-1.68.38s1.47-.27,2.45-.34l.73,0a1.2,1.2,0,0,1-.17.41,1.43,1.43,0,0,1-.55.47,3.85,3.85,0,0,1-1.66.1A5,5,0,0,1,7.74,32.73Z"/><path class="cls-4" d="M5.89,27.1s.63-.21,1-.29a4.31,4.31,0,0,1,1.66,0,2.59,2.59,0,0,1,1.46.75,1.31,1.31,0,0,1,.32.91s-.93-.35-1.7-.6a16.42,16.42,0,0,0-2-.51s1.71.51,2.8,1c.42.17.79.36.79.36a1.32,1.32,0,0,1-.41.35,1.82,1.82,0,0,1-.86.19,4.51,4.51,0,0,1-1.83-.8A5.82,5.82,0,0,1,5.89,27.1Z"/><path class="cls-4" d="M6.09,18.55s.79.13,1.18.23A5,5,0,0,1,9,19.64a2.93,2.93,0,0,1,1.08,1.59,1.54,1.54,0,0,1-.21,1.12s-.75-.88-1.41-1.56A19.64,19.64,0,0,0,6.7,19.15S8.18,20.63,9,21.71c.33.41.62.81.62.81a1.79,1.79,0,0,1-.65.14,2.17,2.17,0,0,1-1-.28,5.21,5.21,0,0,1-1.42-1.84A6.64,6.64,0,0,1,6.09,18.55Z"/><path class="cls-4" d="M14.85,19.15s-.3.33-.43.52a2.68,2.68,0,0,0-.42,1,1.65,1.65,0,0,0,.15,1.07.94.94,0,0,0,.53.41s0-.65,0-1.18a9.16,9.16,0,0,1,.14-1.35s-.07,1.17,0,1.95c0,.29.05.57.05.57a1,1,0,0,0,.33-.17,1,1,0,0,0,.33-.49,2.64,2.64,0,0,0-.1-1.31A4,4,0,0,0,14.85,19.15Z"/><path class="cls-4" d="M16.73,21.79l.23-.27a1.55,1.55,0,0,1,.5-.33,1,1,0,0,1,.61-.05.53.53,0,0,1,.28.22l-.65.14a7.44,7.44,0,0,0-.72.22s.64-.16,1.07-.23l.31,0a.41.41,0,0,1-.05.19.63.63,0,0,1-.23.23,1.85,1.85,0,0,1-.72.1A2.15,2.15,0,0,1,16.73,21.79Z"/><path class="cls-4" d="M11.44,14.08s.62,0,.94.05a3.84,3.84,0,0,1,1.46.48,2.33,2.33,0,0,1,1,1.1,1.21,1.21,0,0,1,0,.9s-.69-.6-1.29-1.06A16,16,0,0,0,12,14.48s1.34,1,2.15,1.73l.58.55a1.21,1.21,0,0,1-.48.18,1.7,1.7,0,0,1-.82-.1,4.25,4.25,0,0,1-1.34-1.28A5,5,0,0,1,11.44,14.08Z"/><path class="cls-4" d="M11.73,10.36s.6-.42.93-.6a4.82,4.82,0,0,1,1.74-.54,3,3,0,0,1,1.8.35,1.49,1.49,0,0,1,.64.86s-1.1-.1-2-.12a20.15,20.15,0,0,0-2.29,0s2,0,3.3.19c.5.06,1,.14,1,.14a1.55,1.55,0,0,1-.33.49,1.88,1.88,0,0,1-.85.45,5,5,0,0,1-2.2-.29A6.94,6.94,0,0,1,11.73,10.36Z"/><path class="cls-4" d="M18.47,14.44s.27-.15.42-.21a2,2,0,0,1,.75-.15,1.29,1.29,0,0,1,.73.23.58.58,0,0,1,.22.39s-.45-.09-.82-.14a9.38,9.38,0,0,0-1-.09s.82.11,1.36.23l.4.1a.68.68,0,0,1-.16.2.92.92,0,0,1-.38.15,2.44,2.44,0,0,1-.91-.23A2.74,2.74,0,0,1,18.47,14.44Z"/><path class="cls-4" d="M18.46,5.75s.4.52.58.81a4.07,4.07,0,0,1,.55,1.51,2.47,2.47,0,0,1-.3,1.58,1.43,1.43,0,0,1-.8.58s.07-1,.08-1.76a15.72,15.72,0,0,0-.1-2s0,1.75-.11,2.9c-.05.44-.11.84-.11.84a1.53,1.53,0,0,1-.48-.28,1.58,1.58,0,0,1-.44-.73,4.08,4.08,0,0,1,.24-1.94A5.7,5.7,0,0,1,18.46,5.75Z"/><path class="cls-4" d="M27.31,7.61s.16.2.23.31a1.58,1.58,0,0,1,.21.59,1,1,0,0,1-.11.61.52.52,0,0,1-.32.22s0-.37,0-.68a5.92,5.92,0,0,0,0-.78s0,.68-.05,1.13a2.62,2.62,0,0,1,0,.32.48.48,0,0,1-.18-.11.57.57,0,0,1-.18-.28,1.64,1.64,0,0,1,.1-.75A2.23,2.23,0,0,1,27.31,7.61Z"/><path class="cls-4" d="M32.87,7.74s-.56-.14-.85-.18a3.76,3.76,0,0,0-1.43.09,2.29,2.29,0,0,0-1.21.75,1.13,1.13,0,0,0-.2.8s.77-.37,1.42-.64A14.27,14.27,0,0,1,32.28,8s-1.44.58-2.34,1c-.35.18-.66.37-.66.37a1.32,1.32,0,0,0,.39.27,1.51,1.51,0,0,0,.75.09,3.84,3.84,0,0,0,1.51-.83A5,5,0,0,0,32.87,7.74Z"/><path class="cls-4" d="M31.27,10.41s.08.36.11.54a2.44,2.44,0,0,1-.09.9,1.41,1.41,0,0,1-.53.75.88.88,0,0,1-.56.12s.27-.48.47-.89a10.94,10.94,0,0,0,.44-1.05s-.42.9-.76,1.46l-.26.41a.84.84,0,0,1-.18-.25.94.94,0,0,1-.05-.48,2.53,2.53,0,0,1,.59-.94A3.52,3.52,0,0,1,31.27,10.41Z"/><path class="cls-4" d="M34.09,16.59s-.61-.06-.92-.06a3.91,3.91,0,0,0-1.49.3,2.47,2.47,0,0,0-1.15,1,1.24,1.24,0,0,0-.09.88s.75-.51,1.39-.88a14.86,14.86,0,0,1,1.68-.87s-1.42.81-2.3,1.44c-.34.24-.63.48-.63.48a1.2,1.2,0,0,0,.44.22,1.7,1.7,0,0,0,.81,0A4.18,4.18,0,0,0,33.29,18,5.12,5.12,0,0,0,34.09,16.59Z"/><path class="cls-4" d="M39.93,9.26s-.64.22-1,.36a4.34,4.34,0,0,0-1.36,1,2.55,2.55,0,0,0-.7,1.5,1.37,1.37,0,0,0,.34.94s.51-.86,1-1.53A16.21,16.21,0,0,1,39.5,9.86s-1,1.47-1.63,2.51c-.22.4-.41.78-.41.78a1.45,1.45,0,0,0,.57,0,1.81,1.81,0,0,0,.81-.38,4.45,4.45,0,0,0,1-1.78A5.43,5.43,0,0,0,39.93,9.26Z"/><path class="cls-4" d="M41.2,16.41s.06.46.06.7A3,3,0,0,1,41,18.25a1.9,1.9,0,0,1-.79.88,1.06,1.06,0,0,1-.72.07s.41-.57.72-1.06a11.23,11.23,0,0,0,.7-1.29s-.66,1.09-1.17,1.77l-.38.48a.9.9,0,0,1-.19-.34,1.05,1.05,0,0,1,0-.61A3,3,0,0,1,40.08,17,4.56,4.56,0,0,1,41.2,16.41Z"/><path class="cls-4" d="M43.42,19s-.2.56-.34.83A3.62,3.62,0,0,1,42.17,21a2.46,2.46,0,0,1-1.39.59,1.33,1.33,0,0,1-.86-.3s.79-.43,1.42-.83a16.65,16.65,0,0,0,1.53-1.09s-1.37.89-2.33,1.39l-.72.34a1.12,1.12,0,0,1,0-.48,1.37,1.37,0,0,1,.35-.7,4.11,4.11,0,0,1,1.64-.81A5.67,5.67,0,0,1,43.42,19Z"/><path class="cls-4" d="M35.7,24.92s.25.41.36.63a3,3,0,0,1,.28,1.16A1.82,1.82,0,0,1,36,27.85a1,1,0,0,1-.64.36s.13-.7.21-1.28a12.76,12.76,0,0,0,.09-1.49s-.14,1.29-.32,2.12c-.07.32-.15.61-.15.61a1,1,0,0,1-.33-.24,1.16,1.16,0,0,1-.26-.57A3.12,3.12,0,0,1,34.92,26,4.3,4.3,0,0,1,35.7,24.92Z"/><path class="cls-4" d="M42.09,24.68a3.34,3.34,0,0,1,.1.65A3,3,0,0,1,42,26.57a2,2,0,0,1-.84,1,1.19,1.19,0,0,1-.79.09s.44-.63.77-1.18a13.09,13.09,0,0,0,.75-1.41s-.7,1.2-1.25,1.94c-.21.28-.42.54-.42.54a1,1,0,0,1-.21-.37,1.26,1.26,0,0,1,0-.67,3.36,3.36,0,0,1,.95-1.24A3.06,3.06,0,0,1,42.09,24.68Z"/><path class="cls-4" d="M44.31,29.16s-.32.48-.51.71a3.66,3.66,0,0,1-1.12.92,2.49,2.49,0,0,1-1.45.27,1.23,1.23,0,0,1-.75-.46s.85-.25,1.53-.5a14.05,14.05,0,0,0,1.7-.71s-1.5.56-2.52.83l-.76.18a1.2,1.2,0,0,1,.09-.47,1.47,1.47,0,0,1,.49-.58,4.13,4.13,0,0,1,1.73-.43A5.57,5.57,0,0,1,44.31,29.16Z"/><path class="cls-4" d="M42.29,37.65s-.65.23-1,.31a4.37,4.37,0,0,1-1.71,0,2.78,2.78,0,0,1-1.53-.76,1.36,1.36,0,0,1-.34-.94s1,.37,1.77.61a17.8,17.8,0,0,0,2.08.53s-1.79-.53-2.92-1c-.44-.18-.83-.37-.83-.37a1.35,1.35,0,0,1,.43-.36,1.76,1.76,0,0,1,.88-.2,4.71,4.71,0,0,1,1.91.82A6.08,6.08,0,0,1,42.29,37.65Z"/><path class="cls-5" d="M66.93,12.09a5.36,5.36,0,0,1,2.12.82,2.78,2.78,0,0,1,1.21,2,4.41,4.41,0,0,1,0,.69,4.06,4.06,0,0,1-.12.83,2.4,2.4,0,0,1-.34.74.87.87,0,0,1-.64.39.84.84,0,0,1-.42-.07.43.43,0,0,1-.29-.35,1.8,1.8,0,0,1,.06-.7,2,2,0,0,0,0-.87A1.9,1.9,0,0,0,67.43,14a4.33,4.33,0,0,0-2.31-.18,8.31,8.31,0,0,0-3.23,1.29A14.92,14.92,0,0,0,59,17.65a18.82,18.82,0,0,0-2.45,3.46,24.58,24.58,0,0,0-1.79,4,19.81,19.81,0,0,0-1,4.15,13.9,13.9,0,0,0,0,3.93,3.55,3.55,0,0,0,.51,1.43,2.9,2.9,0,0,0,.9.88,2.86,2.86,0,0,0,1.17.4,4.67,4.67,0,0,0,1.29,0,7,7,0,0,0,2.68-1.12,19,19,0,0,0,2.75-2.15,21,21,0,0,0,2.36-2.65A13.06,13.06,0,0,0,67,27.35c-1,.41-1.92.79-2.92,1.12a17.08,17.08,0,0,1-3,.74,2.32,2.32,0,0,1-.94,0,.69.69,0,0,1-.58-.6.65.65,0,0,1,.23-.6,1.45,1.45,0,0,1,.61-.35,45.92,45.92,0,0,0,4.42-1.29A21.08,21.08,0,0,0,69,24.39l.36-.2a1.21,1.21,0,0,1,.43-.14,1,1,0,0,1,.77.16.85.85,0,0,1,.42.61.74.74,0,0,1-.23.69,1.72,1.72,0,0,1-.66.4,6.11,6.11,0,0,0-.84,1.82,18.87,18.87,0,0,0-.65,2.71c-.17,1-.29,1.93-.36,2.87a11,11,0,0,0,0,2.35,1.42,1.42,0,0,0,.05.16.83.83,0,0,1,0,.15,2,2,0,0,1-.21,1.27,1.21,1.21,0,0,1-.9.68,1.25,1.25,0,0,1-.8-.14A.79.79,0,0,1,66,37.2a8.77,8.77,0,0,1,0-2.41q.15-1.3.27-2.52-.78.82-1.74,1.71a20.42,20.42,0,0,1-2,1.65A15.23,15.23,0,0,1,60.18,37a8.17,8.17,0,0,1-2.38.77,6.11,6.11,0,0,1-2.22,0,5,5,0,0,1-1.86-.79,4.77,4.77,0,0,1-1.36-1.43,5,5,0,0,1-.72-2,13.51,13.51,0,0,1,0-3.45,23.86,23.86,0,0,1,.86-4.28,29.39,29.39,0,0,1,1.75-4.52,21.27,21.27,0,0,1,2.62-4.15,16.16,16.16,0,0,1,3.52-3.24,10.89,10.89,0,0,1,4.44-1.73,9.38,9.38,0,0,1,1-.12A4.84,4.84,0,0,1,66.93,12.09Z"/><path class="cls-5" d="M73.91,25.54a5.6,5.6,0,0,0-.21.69,2.93,2.93,0,0,0,0,.71,3.7,3.7,0,0,0,.16.7.46.46,0,0,0,.52.38,1.55,1.55,0,0,0,.9-.45,1.42,1.42,0,0,1,.86-.45.84.84,0,0,1,.67.14.49.49,0,0,1,.18.47,3.21,3.21,0,0,1-.1.4c-.06.25-.14.56-.21.93s-.14.77-.19,1.19a7.48,7.48,0,0,0,0,1.14,1.74,1.74,0,0,0,.26.84.62.62,0,0,0,.66.28,3.34,3.34,0,0,0,1-.32,9.62,9.62,0,0,0,1.18-.68,9.27,9.27,0,0,0,1.1-.86,6.44,6.44,0,0,0,.82-.88c.06-.08.19-.05.39.08s.23.35.08.67a4.32,4.32,0,0,1-.8,1.18,7,7,0,0,1-1.14,1,7.18,7.18,0,0,1-1.3.71,4.8,4.8,0,0,1-1.26.35,2.11,2.11,0,0,1-1.64-.33,2.15,2.15,0,0,1-.7-1.19,4.68,4.68,0,0,1-.07-1.6,9.14,9.14,0,0,1,.3-1.54l-.41.1-.42.06a1.74,1.74,0,0,1-.78,0c0,.26-.1.62-.19,1.07s-.19.93-.3,1.43-.21.95-.31,1.37a6.34,6.34,0,0,1-.25.93c-.14.41-.35.65-.62.7s-.55-.1-.83-.47a4.74,4.74,0,0,0,.39-1l.48-1.62c.17-.58.33-1.14.47-1.69s.24-.93.31-1.18a2.29,2.29,0,0,1-.66-1.44,3.82,3.82,0,0,1,0-.49,3.57,3.57,0,0,1,.1-.72,1.73,1.73,0,0,1,.29-.65.86.86,0,0,1,.6-.33.9.9,0,0,1,.48.07A.41.41,0,0,1,73.91,25.54Z"/><path class="cls-5" d="M97.48,28.56c.06-.12.18-.13.37,0s.25.22.22.37a3.77,3.77,0,0,1-.61,1.3,6,6,0,0,1-1.25,1.33,7.51,7.51,0,0,1-1.8,1,7.06,7.06,0,0,1-2.28.52A4.8,4.8,0,0,1,90,32.85a4.23,4.23,0,0,1-1.16-.56,7.22,7.22,0,0,1-2,1,11.61,11.61,0,0,1-1.54.36,5.94,5.94,0,0,1-1.11,0,3.46,3.46,0,0,1-1.07-.29,2.18,2.18,0,0,1-.84-.67,2.14,2.14,0,0,1-.4-1.15,4.14,4.14,0,0,1,.32-1.8,7,7,0,0,1,1-1.76A7.14,7.14,0,0,1,84.7,26.6,3.22,3.22,0,0,1,86.3,26a1.36,1.36,0,0,1,1.19.37,1.61,1.61,0,0,1,.42.95,2.55,2.55,0,0,1-.32,1.41,4.46,4.46,0,0,1-1,1.28,6.76,6.76,0,0,1-1.38,1,3.92,3.92,0,0,1-1.53.47.93.93,0,0,0,.78.8,3.43,3.43,0,0,0,1.4-.09,8.41,8.41,0,0,0,1.48-.53,8.26,8.26,0,0,0,1.08-.57,3.44,3.44,0,0,1,0-1.27A4.78,4.78,0,0,1,89,28.33a4.25,4.25,0,0,1,1.14-1.26,3.16,3.16,0,0,1,1.72-.62,1.91,1.91,0,0,1,1,.21,1.05,1.05,0,0,1,.55.94,2,2,0,0,1-.24,1.11,4.13,4.13,0,0,1-.73,1,8.53,8.53,0,0,1-1,.92c-.36.28-.69.53-1,.74a2.65,2.65,0,0,0,1.77.48,5.87,5.87,0,0,0,2-.5,7.57,7.57,0,0,0,1.9-1.19A5,5,0,0,0,97.48,28.56ZM83.67,30.25a1.35,1.35,0,0,0,.89-.32,7.35,7.35,0,0,0,1.08-.87,4.5,4.5,0,0,0,.78-1c.19-.33.18-.58,0-.76s-.33-.08-.61.09a3.74,3.74,0,0,0-.86.71,7.78,7.78,0,0,0-.81,1A2.6,2.6,0,0,0,83.67,30.25Zm6.41-.16a2.88,2.88,0,0,0,.72-.49,6,6,0,0,0,.67-.66,1.88,1.88,0,0,0,.38-.63.37.37,0,0,0-.14-.44.94.94,0,0,0-.48.12,1.59,1.59,0,0,0-.52.46,3.47,3.47,0,0,0-.41.74A2.9,2.9,0,0,0,90.08,30.09Z"/><path class="cls-5" d="M111,28.54c.2-.2.37-.28.5-.25a.31.31,0,0,1,.23.26,1.05,1.05,0,0,1-.05.51,2,2,0,0,1-.3.55,8.07,8.07,0,0,1-.88.87,7.16,7.16,0,0,1-1.14.78,8,8,0,0,1-1.26.59,4.28,4.28,0,0,1-1.23.25,5.12,5.12,0,0,1-1.69-.23,2.05,2.05,0,0,1-1.19-1,2.69,2.69,0,0,1-.27-1,8.32,8.32,0,0,1,0-1.1c0-.35,0-.64,0-.88s-.1-.34-.24-.34a2.09,2.09,0,0,0-1.24.71,20.25,20.25,0,0,0-1.46,1.55c-.49.57-1,1.11-1.42,1.62a2.68,2.68,0,0,1-1.16.87,1.26,1.26,0,0,1-.79,0,.73.73,0,0,1-.49-.53,5.57,5.57,0,0,1,.19-.87c.12-.48.27-1,.44-1.59s.34-1.13.52-1.66.31-.88.37-1a.72.72,0,0,1,.65-.44.82.82,0,0,1,.78.29,1.2,1.2,0,0,1,.17.75,7.21,7.21,0,0,1-.51,1.71l1-1a8.8,8.8,0,0,1,1.12-1,4.48,4.48,0,0,1,1.24-.65,2.17,2.17,0,0,1,1.31,0,1.43,1.43,0,0,1,.9.65,3.19,3.19,0,0,1,.35,1,11.48,11.48,0,0,1,.09,1.19,3.35,3.35,0,0,0,.15,1.06,1,1,0,0,0,1.18.7A5.9,5.9,0,0,0,109,30,13.3,13.3,0,0,0,111,28.54Z"/><path class="cls-5" d="M133.27,7.87a5.88,5.88,0,0,1,2.24.51,5,5,0,0,1,1.72,1.25,5.48,5.48,0,0,1,1.06,1.85,6.25,6.25,0,0,1,.32,2.27,10.85,10.85,0,0,1-.93,4,13.22,13.22,0,0,1-2.22,3.42,17.09,17.09,0,0,1-3.15,2.75,23,23,0,0,1-3.74,2,20.71,20.71,0,0,1-4,1.26,18.76,18.76,0,0,1-3.9.43c.37,1.06.84,2.27,1.38,3.61a21.13,21.13,0,0,0,2,3.8,12.9,12.9,0,0,0,2.71,3,5.93,5.93,0,0,0,3.61,1.33,7.6,7.6,0,0,0,1.67-.09,13.51,13.51,0,0,0,1.47-.31,9.15,9.15,0,0,0,1.19-.41,8.73,8.73,0,0,0,.8-.39.27.27,0,0,1,.26,0,.58.58,0,0,1,.25.24,1.14,1.14,0,0,1,.15.36.27.27,0,0,1-.07.29,4.72,4.72,0,0,1-1,.75,13.19,13.19,0,0,1-1.41.72,9.58,9.58,0,0,1-1.67.53,6.81,6.81,0,0,1-1.72.16,8.74,8.74,0,0,1-3.3-.73,9,9,0,0,1-2.57-1.73,12.57,12.57,0,0,1-2-2.44,26.57,26.57,0,0,1-1.59-2.88c-.47-1-.9-2-1.3-3.06s-.78-2-1.16-2.94a2.42,2.42,0,0,1-.36-.1,1.72,1.72,0,0,0-.37-.07l-.29.8c-.15.39-.31.83-.49,1.33s-.37,1-.55,1.52-.35,1-.51,1.33a.49.49,0,0,1-.47.29,2,2,0,0,1-.71-.09,1.69,1.69,0,0,1-.63-.38.54.54,0,0,1-.19-.57c.08-.37.2-.78.34-1.23s.3-.9.46-1.35.31-.89.47-1.33.3-.83.43-1.17A6.85,6.85,0,0,1,114.24,25a3.15,3.15,0,0,1-.48-1.85,2.38,2.38,0,0,1,.8-1.78,2.49,2.49,0,0,1,1.85-.64,2.1,2.1,0,0,1,1.1.35l.51-1.29.89-2.24c.34-.84.7-1.73,1.07-2.67s.73-1.83,1.07-2.64.62-1.51.87-2.07a7,7,0,0,1,.47-1,1.12,1.12,0,0,1,.56-.5.86.86,0,0,1,.55,0,.74.74,0,0,1,.37.35.72.72,0,0,1,.08.49,6.62,6.62,0,0,1-.28,1.08c-.14.37-.28.73-.43,1.1s-.32.71-.48,1l-.43.8a19.83,19.83,0,0,1,2.22-2.14,17.2,17.2,0,0,1,2.7-1.85,16,16,0,0,1,2.95-1.29A9,9,0,0,1,133.27,7.87ZM115.89,23.2a2.16,2.16,0,0,0,.08.67,2.66,2.66,0,0,0,.26.6l.47-1.24c0-.42-.14-.64-.47-.65a.26.26,0,0,0-.27.22A2.25,2.25,0,0,0,115.89,23.2Zm4.34,2.72a14.61,14.61,0,0,0,3.54-.3,19.16,19.16,0,0,0,3.63-1.1,20.93,20.93,0,0,0,3.43-1.82,15.23,15.23,0,0,0,2.9-2.48,12.71,12.71,0,0,0,2-3,8.86,8.86,0,0,0,.85-3.54,5,5,0,0,0-.16-1.55,3.92,3.92,0,0,0-.62-1.3,3.34,3.34,0,0,0-1.05-.92,3.21,3.21,0,0,0-1.51-.39,8.38,8.38,0,0,0-3.34.54,11.16,11.16,0,0,0-3,1.67,16.77,16.77,0,0,0-2.6,2.47,25.22,25.22,0,0,0-2.2,3,32.89,32.89,0,0,0-1.77,3.14c-.52,1-1,2-1.33,3a4.31,4.31,0,0,1,.25.48c.12.25.24.52.37.82s.24.57.35.84S120.19,25.81,120.23,25.92Z"/><path class="cls-5" d="M142.66,27.43a.14.14,0,0,1,.19,0,.44.44,0,0,1,.1.22.66.66,0,0,1,0,.28.38.38,0,0,1-.11.22,5,5,0,0,1-.81.5,14.26,14.26,0,0,1-1.33.58,10.68,10.68,0,0,1-1.6.46,5.57,5.57,0,0,1-1.66.12,3.2,3.2,0,0,1-1.14-.3,9.76,9.76,0,0,1-.58,1.18,7.17,7.17,0,0,1-.88,1.19,4.89,4.89,0,0,1-1.09.91,1.94,1.94,0,0,1-1.22.3,2.07,2.07,0,0,1-1.39-.62,1.72,1.72,0,0,1-.37-1.49,5.57,5.57,0,0,1,.59-1.57,7.7,7.7,0,0,1,1.13-1.57,6.24,6.24,0,0,1,1.49-1.2,2.9,2.9,0,0,1,1.64-.39q.84.07,1,.42a1.3,1.3,0,0,1,.17.72,4.09,4.09,0,0,0,0,.71c0,.22.24.35.64.38a7.21,7.21,0,0,0,1.53-.05,12.18,12.18,0,0,0,1.53-.3,9.62,9.62,0,0,0,1.3-.4C142.22,27.62,142.49,27.51,142.66,27.43Zm-8.33,2.65c0-.12.16-.3.31-.56a9,9,0,0,0,.42-.82,4.16,4.16,0,0,0,.26-.81c0-.24,0-.4-.14-.48a.61.61,0,0,0-.64.14,3.71,3.71,0,0,0-.75.74,9.21,9.21,0,0,0-.72,1.08,7.81,7.81,0,0,0-.55,1.14,2.69,2.69,0,0,0-.2.89c0,.25.1.38.29.39a.81.81,0,0,0,.54-.16,2.85,2.85,0,0,0,.47-.45,3.59,3.59,0,0,0,.4-.59C134.14,30.38,134.25,30.21,134.33,30.08Z"/><path class="cls-5" d="M154.19,30.33c.14,0,.24.14.29.37a.84.84,0,0,1,0,.57,3,3,0,0,1-.68,1,6.06,6.06,0,0,1-1.18.91,6,6,0,0,1-1.5.65,4,4,0,0,1-1.65.14,1.82,1.82,0,0,1-1.5-.86,2.77,2.77,0,0,1-.38-1.6c-.28.26-.6.53-.94.82a8.85,8.85,0,0,1-1.07.78,6.29,6.29,0,0,1-1.18.55,2.52,2.52,0,0,1-1.2.15,1.78,1.78,0,0,1-1.24-.64,1.71,1.71,0,0,1-.39-1.33,3,3,0,0,1,.35-1.09,5.15,5.15,0,0,1,.71-1,9.24,9.24,0,0,1,.9-.87l.91-.75a14.19,14.19,0,0,1,1.67-1.07,3.25,3.25,0,0,1,1.94-.4,1.6,1.6,0,0,1,.86.39,1.1,1.1,0,0,1,.41.87,1.33,1.33,0,0,0,.49.25c.19,0,.33.26.41.62a12.81,12.81,0,0,0-.59,1.33,6,6,0,0,0-.31,1.37,1.8,1.8,0,0,0,.08.76.53.53,0,0,0,.49.42,2.67,2.67,0,0,0,1.27-.16,5.83,5.83,0,0,0,1.23-.6,8,8,0,0,0,1.05-.8A6,6,0,0,0,154.19,30.33Zm-10.72,2.38a2.08,2.08,0,0,0,1.38-.5,11.44,11.44,0,0,0,1.5-1.32,13.07,13.07,0,0,0,1.23-1.46,3,3,0,0,0,.55-1,.87.87,0,0,0-.06-.47c-.06-.12-.22-.14-.49-.05a6.34,6.34,0,0,0-2,1.08,12.51,12.51,0,0,0-1.65,1.56,4.39,4.39,0,0,0-.86,1.42C142.94,32.43,143.08,32.67,143.47,32.71Z"/><path class="cls-5" d="M171.13,15.6q.52.32.39,1.23a8.16,8.16,0,0,1-.71,2.21,28.85,28.85,0,0,1-1.47,2.82c-.59,1-1.2,2-1.83,3s-1.23,1.93-1.82,2.82-1.08,1.65-1.46,2.26q-1,2-2,4.06a22.32,22.32,0,0,0-1.58,4.57c-.09.34-.18.75-.26,1.24a2.79,2.79,0,0,0,0,1.16c.16.63-.12.94-.85.92a.93.93,0,0,1-.85-.39,1.89,1.89,0,0,1-.3-.91,4.46,4.46,0,0,1,.06-1.09c.07-.37.13-.68.19-.93a19.28,19.28,0,0,1,.73-2.52q.48-1.38.93-2.46c-.28.22-.62.51-1,.87a8.88,8.88,0,0,1-1.25.94,4.85,4.85,0,0,1-1.39.59,2,2,0,0,1-1.42-.2,1.56,1.56,0,0,1-.93-1.33,3.84,3.84,0,0,1,.39-1.9,9.59,9.59,0,0,1,1.33-2.12,15.48,15.48,0,0,1,1.87-1.92,10.85,10.85,0,0,1,2-1.36,3.17,3.17,0,0,1,1.81-.41A1.34,1.34,0,0,1,163,28.19a10.28,10.28,0,0,0,.8-1.46c.36-.75.78-1.63,1.25-2.63s1-2,1.54-3.13,1.11-2,1.67-2.91a11.67,11.67,0,0,1,1.56-2C170.31,15.56,170.75,15.42,171.13,15.6Zm-14.86,19a2,2,0,0,0,1.24-.32,10.32,10.32,0,0,0,1.35-1,14,14,0,0,0,1.24-1.19c.37-.41.67-.73.89-1a.41.41,0,0,1-.19-.36,1.54,1.54,0,0,1,.11-.46,3.57,3.57,0,0,1,.25-.47,1.73,1.73,0,0,0,.21-.4l.16-.45a2.47,2.47,0,0,0,.14-.55.47.47,0,0,0-.1-.4c-.08-.09-.24-.09-.49,0a3.65,3.65,0,0,0-1.1.68,11.24,11.24,0,0,0-1.26,1.24c-.43.48-.83,1-1.23,1.51a12.33,12.33,0,0,0-1,1.47,4.93,4.93,0,0,0-.48,1.14C156,34.37,156.06,34.54,156.27,34.56Z"/><path class="cls-5" d="M185.32,27.8a.76.76,0,0,1,.52.25.59.59,0,0,1,.15.44.67.67,0,0,1-.22.41.91.91,0,0,1-.59.22,11.54,11.54,0,0,1-1.18.06l-1.93.06c-.7,0-1.42.08-2.14.13a14.17,14.17,0,0,0-1.76.22c-.12.46-.3,1-.53,1.65s-.48,1.33-.75,2.05-.57,1.44-.88,2.16-.61,1.38-.89,2-.54,1.11-.76,1.52a2.75,2.75,0,0,1-.52.77,1.28,1.28,0,0,1-1,.29,1.32,1.32,0,0,1-.81-.39,1,1,0,0,1-.26-.82,7.1,7.1,0,0,0,1.1-1.75c.38-.8.77-1.66,1.14-2.57s.73-1.78,1.05-2.62.57-1.46.76-1.89l-.55.17-.74.26c-.26.09-.5.17-.71.22a1.48,1.48,0,0,1-.43.08,4,4,0,0,1-.68-.12c-.17-.05-.24-.21-.21-.46a1,1,0,0,1,.47-.71,4.88,4.88,0,0,1,1.07-.57,9.87,9.87,0,0,1,1.33-.43l1.24-.29c.06-.16.19-.5.37-1s.4-1.15.65-1.85.51-1.45.78-2.24.53-1.53.77-2.2.46-1.25.64-1.7a3.28,3.28,0,0,1,.34-.74c.68,0,1.13.06,1.32.3a.91.91,0,0,1,.18.84,14,14,0,0,1-.52,1.92c-.23.7-.5,1.43-.79,2.17s-.58,1.48-.87,2.2-.57,1.39-.8,2c1.07-.1,2.17-.17,3.31-.2A17.94,17.94,0,0,1,185.32,27.8Zm16.39-11.74q-5.82-.49-11.53-.44a81,81,0,0,0-11.47.94,1.39,1.39,0,0,1-.39.19,4.74,4.74,0,0,1-.57.15l-.59.09a1.83,1.83,0,0,1-.43,0,1.73,1.73,0,0,1-.78-.29.75.75,0,0,1-.31-.74.67.67,0,0,1,.3-.5,2.67,2.67,0,0,1,.61-.3,4.38,4.38,0,0,1,.71-.19l.61-.12a58.22,58.22,0,0,1,5.95-.92q3.09-.32,6.22-.39t6.24,0c2.07.08,4.08.23,6,.43l.66.07a4.59,4.59,0,0,1,.82.17,2.14,2.14,0,0,1,.69.36.63.63,0,0,1,.23.6,1,1,0,0,1-.27.61,1.81,1.81,0,0,1-.57.41,2.81,2.81,0,0,1-.71.23,2.54,2.54,0,0,1-.66,0,1.47,1.47,0,0,1-.46-.11A.65.65,0,0,1,201.71,16.06Z"/><path class="cls-5" d="M195.27,34.62c.14,0,.24.13.31.35a1,1,0,0,1,0,.58,3,3,0,0,1-.65,1,5.94,5.94,0,0,1-2.62,1.65,4.18,4.18,0,0,1-1.64.2,1.81,1.81,0,0,1-1.53-.81A2.75,2.75,0,0,1,188.7,36c-.27.26-.58.54-.91.84a6.9,6.9,0,0,1-1,.82,6.63,6.63,0,0,1-1.15.6,2.8,2.8,0,0,1-1.2.19,1.77,1.77,0,0,1-1.26-.61,1.67,1.67,0,0,1-.43-1.31,2.81,2.81,0,0,1,.31-1.1,5.13,5.13,0,0,1,.67-1,8.3,8.3,0,0,1,.88-.9l.88-.78a13.61,13.61,0,0,1,1.63-1.12,3.25,3.25,0,0,1,1.93-.47,1.73,1.73,0,0,1,.87.36,1.16,1.16,0,0,1,.44.86,1.39,1.39,0,0,0,.49.23c.2,0,.34.25.43.6-.22.5-.4.95-.54,1.36a6.17,6.17,0,0,0-.26,1.37,1.8,1.8,0,0,0,.1.76.56.56,0,0,0,.51.41,2.86,2.86,0,0,0,1.27-.21,5.78,5.78,0,0,0,1.2-.64,7.23,7.23,0,0,0,1-.84A7.08,7.08,0,0,0,195.27,34.62Zm-10.63,2.74a2.06,2.06,0,0,0,1.36-.55,10.8,10.8,0,0,0,1.45-1.36,13.58,13.58,0,0,0,1.18-1.51,2.76,2.76,0,0,0,.51-1,.75.75,0,0,0-.07-.46c-.06-.12-.22-.13-.48,0a6.11,6.11,0,0,0-2,1.16A10.92,10.92,0,0,0,185,35.23a4.37,4.37,0,0,0-.82,1.45C184.1,37.1,184.24,37.33,184.64,37.36Z"/><path class="cls-5" d="M197.65,30.37a6.8,6.8,0,0,0-.3.66,3,3,0,0,0-.12.69,3.45,3.45,0,0,0,.07.72c0,.3.2.44.46.45a1.55,1.55,0,0,0,1-.32,1.47,1.47,0,0,1,.92-.33.86.86,0,0,1,.64.23.51.51,0,0,1,.11.5,2.87,2.87,0,0,1-.15.38c-.1.23-.21.53-.34.89s-.24.75-.34,1.15a5.67,5.67,0,0,0-.19,1.13,1.76,1.76,0,0,0,.13.86.64.64,0,0,0,.62.37,3.19,3.19,0,0,0,1-.18,9.25,9.25,0,0,0,1.26-.51,10.3,10.3,0,0,0,1.21-.7,5.93,5.93,0,0,0,.93-.76c.07-.07.2,0,.38.13s.18.38,0,.68a4.12,4.12,0,0,1-.95,1.06,6.82,6.82,0,0,1-1.27.81,7.26,7.26,0,0,1-1.38.53A4.79,4.79,0,0,1,200,39a2.1,2.1,0,0,1-1.58-.56,2.21,2.21,0,0,1-.53-1.27,4.92,4.92,0,0,1,.15-1.59,9.57,9.57,0,0,1,.52-1.49l-.42,0h-.42a1.92,1.92,0,0,1-1.49-.67,2.24,2.24,0,0,1-.52-1.56,4.2,4.2,0,0,1,.07-.49,3.55,3.55,0,0,1,.19-.69,1.86,1.86,0,0,1,.38-.6.82.82,0,0,1,.64-.25.87.87,0,0,1,.47.14A.38.38,0,0,1,197.65,30.37Z"/><path class="cls-5" d="M223.25,33.56a.68.68,0,0,1,.25.49.93.93,0,0,1-.23.73,8.31,8.31,0,0,1-2,1.76,11.11,11.11,0,0,1-2.39,1.15,3.83,3.83,0,0,1-1.09.2,3.36,3.36,0,0,1-1.1-.14,2.46,2.46,0,0,1-1-.54,2.29,2.29,0,0,1-.62-1.08,9.72,9.72,0,0,0-.61.78,7.79,7.79,0,0,1-.69.83,4.65,4.65,0,0,1-.8.69,1.77,1.77,0,0,1-.87.33,1,1,0,0,1-.94-.36,2.62,2.62,0,0,1-.44-1,6.56,6.56,0,0,1-.12-1.26c0-.43,0-.8,0-1.1a9,9,0,0,0-1.27,1.68A6.17,6.17,0,0,1,208,38.34a6.07,6.07,0,0,1-.57.43.76.76,0,0,1-.66.08.73.73,0,0,1-.51-.51,2.34,2.34,0,0,1,0-.75,12.62,12.62,0,0,1,.15-1.35c.08-.49.15-.93.19-1.31,0-.23,0-.52.06-.86a.86.86,0,0,1,.29-.71.82.82,0,0,1,.62-.14.52.52,0,0,1,.45.42,2.43,2.43,0,0,1,.05,1.19c-.09.47-.14.86-.17,1.17.2-.23.43-.51.7-.86s.55-.68.84-1a5.46,5.46,0,0,1,.91-.84,1.73,1.73,0,0,1,.92-.38.78.78,0,0,1,.77.47,3.42,3.42,0,0,1,.25,1.14,8.56,8.56,0,0,1,0,1.34,4.24,4.24,0,0,0,0,1,5.32,5.32,0,0,0,.83-.94,12.37,12.37,0,0,1,.79-1c.21-.27.44-.53.66-.77a1.6,1.6,0,0,1,.83-.46.7.7,0,0,1,.78.33,4,4,0,0,1,.36.94,8.36,8.36,0,0,0,.34,1,.68.68,0,0,0,.68.46,5.28,5.28,0,0,0,2.6-.73,12.41,12.41,0,0,0,2.18-1.61c.22-.22.38-.4.49-.52S223.06,33.45,223.25,33.56Z"/></svg>