<svg id="txt" xmlns="http://www.w3.org/2000/svg" viewBox="0 0 276.17 68.58"><defs><style>.cls-1,.cls-10,.cls-11,.cls-12,.cls-13,.cls-14,.cls-15,.cls-16,.cls-17,.cls-18,.cls-19{fill:#fff;}.cls-2{font-size:30px;}.cls-2,.cls-8{fill:#59b740;}.cls-10,.cls-11,.cls-12,.cls-13,.cls-14,.cls-15,.cls-16,.cls-17,.cls-18,.cls-19,.cls-2{font-family:Apple-Chancery, Apple Chancery;}.cls-3{letter-spacing:-0.01em;}.cls-4{letter-spacing:0.01em;}.cls-5{letter-spacing:-0.06em;}.cls-6{letter-spacing:-0.02em;}.cls-7,.cls-9{fill:#58a841;}.cls-7{fill-rule:evenodd;}.cls-17,.cls-8{font-size:13px;}.cls-8{font-family:HannariMincho-83pv-RKSJ-H, HannariMincho;letter-spacing:0.04em;}.cls-10{font-size:15px;}.cls-11,.cls-12,.cls-13,.cls-14,.cls-15{font-size:13.5px;}.cls-11{letter-spacing:0.04em;}.cls-12{letter-spacing:0.04em;}.cls-13{letter-spacing:0.06em;}.cls-14{letter-spacing:0.06em;}.cls-15{letter-spacing:0.06em;}.cls-16,.cls-19{font-size:12px;}.cls-16{letter-spacing:0.06em;}.cls-17{letter-spacing:0.06em;}.cls-18{font-size:12.5px;letter-spacing:0.06em;}.cls-19{letter-spacing:0.06em;}</style></defs><title>Artboard 3</title><path class="cls-1" d="M56,55.64a6.12,6.12,0,0,1-2.83,1.48,2.25,2.25,0,0,1-2.11-.58,3.3,3.3,0,0,1-.81-2.41,6.59,6.59,0,0,1,1.49-4.22,5.84,5.84,0,0,1,3.71-2.23,6.32,6.32,0,0,1,2.33,0c-.15.33-.29.67-.43,1l-.12.29c-.1.23-.23.36-.37.38h-.14a1,1,0,0,0,.09-.34c0-.28-.19-.5-.57-.65a2.49,2.49,0,0,0-1.32-.1A3.75,3.75,0,0,0,52.37,50a6.1,6.1,0,0,0-.95,3.47,3.11,3.11,0,0,0,.67,2.21,1.9,1.9,0,0,0,1.85.51A3.92,3.92,0,0,0,56.06,55c.09-.77.17-1.55.26-2.32l-1.08.17a6.62,6.62,0,0,0-1.76.52,2.48,2.48,0,0,1,.6-.92,2.7,2.7,0,0,1,1.06-.34l.65-.12,1.68-.27-.06.28-.1.41c-.06.25-.09.46-.12.63-.09.87-.18,1.73-.28,2.6a9.72,9.72,0,0,1-.37,2,4,4,0,0,1-.75,1.3,4.07,4.07,0,0,1-2.49,1.51,2.14,2.14,0,0,1-2.07-.53l.94-.92a1.59,1.59,0,0,0,1.8.8,1.88,1.88,0,0,0,1.31-.8,5.67,5.67,0,0,0,.58-2.21Z"/><path class="cls-1" d="M61,52.23c.94-1.91,1.87-2.92,2.78-3a1.59,1.59,0,0,1,.71.08l-.9,1.09a.94.94,0,0,0-.52,0c-.44,0-.9.47-1.39,1.25a5.4,5.4,0,0,0-.86,2.34l-.17,1.57-.95.45,0-.19.05-.42,0-.42.33-3.07,0-.34a5.25,5.25,0,0,0,0-.61q0-.39-.21-.36c-.34,0-.68.46-1,1.23-.11-.06-.16-.14-.15-.22a2.17,2.17,0,0,1,.7-1.13,2.25,2.25,0,0,1,1.1-.79q.54-.07.54.63a3.16,3.16,0,0,1,0,.47l0,.45L61,51.7Z"/><path class="cls-1" d="M65.79,55.2c-1,.11-1.43-.46-1.43-1.72a5.19,5.19,0,0,1,1.12-3.07,3.49,3.49,0,0,1,2.32-1.66c1-.09,1.44.49,1.44,1.75a5.14,5.14,0,0,1-1.11,3A3.57,3.57,0,0,1,65.79,55.2Zm.77-.79a1.63,1.63,0,0,0,1.22-.94,4.09,4.09,0,0,0,.49-2.07c0-1.32-.41-1.95-1.23-1.86a1.64,1.64,0,0,0-1.22,1,4.22,4.22,0,0,0-.49,2.07C65.33,53.89,65.74,54.5,66.56,54.41Z"/><path class="cls-1" d="M71.62,54.62a17.63,17.63,0,0,0-.21-2.78l-.21-1.32c-.12-.76-.32-1.13-.61-1.13s-.55.34-.67,1a.22.22,0,0,1-.21-.23,1.81,1.81,0,0,1,.46-1.08,1.4,1.4,0,0,1,.83-.64c.37,0,.67.25.88.85a15.19,15.19,0,0,1,.55,3.12l0,.38a25,25,0,0,0,1.67-3.87l.75-.77c0,.56.1,1,.14,1.31s.11.67.16,1l.1.7.28,1.61.15-.26a9.47,9.47,0,0,0,1.48-3.17.7.7,0,0,0-.39-.6l.77-.77a.74.74,0,0,1,.47.67,4.49,4.49,0,0,1-.73,1.76l-.39.66c-.15.29-.31.57-.47.86a10.23,10.23,0,0,0-.75,1.64l-.76.81A23.94,23.94,0,0,0,74.64,52l-.11-.59L74.26,50l-.3.57a23.34,23.34,0,0,0-1.37,3.14Z"/><path class="cls-1" d="M87.16,51.19a10.14,10.14,0,0,1-1.35,2c-.46.52-.85.78-1.14.79S84,53.53,84,52.68l0-.88c0-.6-.06-1.2-.08-1.8l0-.51c0-.68-.17-1-.38-1s-.65.33-1,1a.31.31,0,0,1-.17-.24c0-.23.21-.54.62-.91a1.82,1.82,0,0,1,1-.58.55.55,0,0,1,.57.34,4.25,4.25,0,0,1,.22,1.32c0,.74.07,1.48.11,2.22s.18,1.26.41,1.26.77-.42,1.27-1.21a6.7,6.7,0,0,0,1-2.33l.24-1.3,1.13-.41a11.73,11.73,0,0,0-.44,1.7c-.28,1.42-.57,2.84-.85,4.26a8.17,8.17,0,0,1-1.55,3.73,5,5,0,0,1-3.63,1.88,3,3,0,0,1-1-.16l.78-.89a2.93,2.93,0,0,0,1.24.22,2.44,2.44,0,0,0,2-.91,8.18,8.18,0,0,0,1.1-3.16Z"/><path class="cls-1" d="M91.22,53.84c-1,0-1.43-.62-1.43-1.88A4.65,4.65,0,0,1,90.91,49a3,3,0,0,1,2.31-1.42c1,0,1.45.64,1.45,1.91a4.63,4.63,0,0,1-1.12,2.93A3.08,3.08,0,0,1,91.22,53.84Zm.76-.71a1.43,1.43,0,0,0,1.23-.81,3.8,3.8,0,0,0,.49-2c0-1.32-.41-2-1.23-2a1.43,1.43,0,0,0-1.22.82,3.83,3.83,0,0,0-.49,2C90.76,52.47,91.17,53.13,92,53.13Z"/><path class="cls-1" d="M100.24,51.29a8.41,8.41,0,0,1-1.63,1.85,2.65,2.65,0,0,1-1.48.75c-.42,0-.63-.29-.63-.85,0-.21,0-.55.08-1,.08-.69.15-1.38.23-2.08t0-.36l0-.42c0-.12,0-.23,0-.32,0-.25-.07-.37-.21-.38-.32,0-.67.35-1,1.07a.27.27,0,0,1-.12-.21c0-.26.23-.6.7-1a1.9,1.9,0,0,1,1.11-.64c.35,0,.53.25.53.73a3,3,0,0,1,0,.4l0,.49-.06.53c-.06.61-.13,1.21-.2,1.81,0,.31,0,.63,0,.94s.11.44.33.45c.47,0,1-.38,1.61-1.15a4.92,4.92,0,0,0,1.07-2.31c.07-.5.15-1,.22-1.5l1-.32c-.12.49-.21.93-.27,1.31-.13.88-.25,1.76-.38,2.64,0,.16,0,.29,0,.4l-.05.35c0,.21,0,.37,0,.46s.06.27.16.27c.36,0,.72-.37,1.09-1.15q.18.11.18.21c0,.15-.19.44-.56.87a1.89,1.89,0,0,1-1.38.88c-.3,0-.46-.22-.46-.64a4.21,4.21,0,0,1,0-.52c0-.17,0-.34.07-.51s.06-.46.07-.55S100.22,51.44,100.24,51.29Z"/><path class="cls-1" d="M105.26,50.55C106.2,48.81,107.13,48,108,48a2,2,0,0,1,.71.2l-.9.94a1.07,1.07,0,0,0-.52-.14c-.44,0-.9.32-1.39,1a4.67,4.67,0,0,0-.86,2.19c-.06.51-.11,1-.17,1.54L104,54l0-.19,0-.41,0-.41.33-3,0-.33a5.47,5.47,0,0,0,0-.61c0-.25-.07-.39-.22-.39-.34,0-.68.34-1,1-.11-.09-.16-.17-.15-.26,0-.25.25-.59.71-1a1.83,1.83,0,0,1,1.09-.6c.36,0,.54.26.54.73a4.54,4.54,0,0,1,0,.46l-.05.45-.06.53Z"/><path class="cls-1" d="M114.14,54.58c-1-.06-1.42-.72-1.42-2a4.45,4.45,0,0,1,1.11-2.87,2.83,2.83,0,0,1,2.32-1.26c1,.06,1.45.72,1.45,2a4.43,4.43,0,0,1-1.12,2.87A2.87,2.87,0,0,1,114.14,54.58Zm.77-.66a1.31,1.31,0,0,0,1.22-.74,3.65,3.65,0,0,0,.5-2c0-1.32-.41-2-1.24-2.06a1.3,1.3,0,0,0-1.21.74,3.65,3.65,0,0,0-.49,2C113.69,53.18,114.09,53.86,114.91,53.92Z"/><path class="cls-1" d="M120,55a18.11,18.11,0,0,0-.21-2.81l-.21-1.36c-.12-.77-.32-1.18-.61-1.22s-.54.25-.67.9a.25.25,0,0,1-.2-.27,1.57,1.57,0,0,1,.45-1c.3-.36.58-.52.83-.5s.67.35.88,1a15.67,15.67,0,0,1,.55,3.2l0,.39a20.57,20.57,0,0,0,1.67-3.62l.75-.66c.05.57.1,1,.15,1.34l.15,1,.11.72c.09.55.18,1.1.28,1.65l.15-.24a8.17,8.17,0,0,0,1.47-3,.84.84,0,0,0-.39-.66l.77-.66a.88.88,0,0,1,.47.73,3.78,3.78,0,0,1-.72,1.66l-.39.61-.48.8a8.86,8.86,0,0,0-.75,1.53l-.76.7c-.06-.76-.16-1.57-.31-2.43l-.11-.6-.27-1.51-.3.52A19.52,19.52,0,0,0,121,54.14Z"/><path class="cls-1" d="M128.7,55.28l-.95.31,0-.18,0-.47.05-.44c.11-1,.22-1.94.34-2.91l0-.34a5.55,5.55,0,0,0,0-.63c0-.27-.07-.41-.2-.42-.32,0-.66.3-1,1-.09-.09-.14-.16-.14-.22,0-.25.23-.58.69-1s.83-.59,1.1-.56.55.28.55.74c0,.12,0,.28,0,.47l-.06.51,0,.43-.05.45a7.41,7.41,0,0,1,1.64-1.7,2.34,2.34,0,0,1,1.52-.59c.41,0,.62.34.62.91,0,.17,0,.43-.07.77-.12.78-.23,1.56-.35,2.33a7.85,7.85,0,0,0-.1,1.12c0,.22.06.33.18.34.29,0,.65-.33,1.08-1.06q.15.1.15.21c0,.27-.23.61-.71,1a1.74,1.74,0,0,1-1.15.56c-.33,0-.5-.28-.5-.75a10.52,10.52,0,0,1,.14-1.43c.07-.51.15-1,.22-1.52a8.89,8.89,0,0,0,.11-1.17c0-.34-.12-.52-.35-.54a2,2,0,0,0-1.65,1,4.42,4.42,0,0,0-1,2.28Z"/><path class="cls-1" d="M140.46,51.4,140,56.49a10,10,0,0,1-.53,2.6,3.91,3.91,0,0,1-1.16,1.54,3.5,3.5,0,0,1-2.63.82,2.32,2.32,0,0,1-.75-.22l.84-.69a3.18,3.18,0,0,0,1,.26c1.25.12,2-.76,2.17-2.63,0-.52.11-1,.16-1.56.18-1.76.35-3.53.53-5.29l-1.14-.11.72-.67.5.05,0-.37A5.88,5.88,0,0,1,141,46.69a3.31,3.31,0,0,1,2.9-1,4.84,4.84,0,0,1,.76.13c-.3.26-.6.52-.89.79a2.67,2.67,0,0,0-.93-.28,1.52,1.52,0,0,0-1.56.61,7.08,7.08,0,0,0-.67,2.83c0,.31-.06.62-.1.93l2.57.24-.75.67Z"/><path class="cls-1" d="M144.85,53.6c.94-1.69,1.86-2.49,2.77-2.4a1.79,1.79,0,0,1,.71.23l-.89.89a1.27,1.27,0,0,0-.52-.16c-.44,0-.91.27-1.4.93a4.56,4.56,0,0,0-.86,2.14c0,.51-.11,1-.17,1.54l-.94.22,0-.19,0-.41,0-.4c.11-1,.23-2,.34-3l0-.33a5.51,5.51,0,0,0,.05-.6c0-.26-.07-.4-.22-.41-.34,0-.67.29-1,1a.36.36,0,0,1-.15-.26c0-.25.25-.57.71-1a1.77,1.77,0,0,1,1.09-.54c.36,0,.54.29.54.77,0,.11,0,.27,0,.46l0,.44-.05.53Z"/><path class="cls-1" d="M153,55.31A7.31,7.31,0,0,1,151.41,57a2.44,2.44,0,0,1-1.48.63q-.63-.06-.63-.9c0-.21,0-.55.08-1l.23-2.06a2.56,2.56,0,0,0,0-.37l0-.41c0-.12,0-.23,0-.32q0-.37-.21-.39c-.32,0-.67.29-1,1a.33.33,0,0,1-.12-.22c0-.26.23-.59.7-1a1.72,1.72,0,0,1,1.12-.54c.35,0,.52.29.52.77,0,.12,0,.25,0,.4l-.06.48-.06.53c-.06.6-.13,1.2-.19,1.8a7.06,7.06,0,0,0-.05.93c0,.29.1.45.32.47.48.05,1-.29,1.62-1a4.53,4.53,0,0,0,1.06-2.23c.08-.5.15-1,.22-1.48l1-.25c-.12.48-.21.9-.27,1.28-.12.87-.25,1.74-.38,2.62,0,.15,0,.29,0,.4l0,.34a3.39,3.39,0,0,0,0,.45c0,.19.05.28.15.29.36,0,.73-.32,1.1-1.08.11.08.17.15.17.22s-.19.43-.55.84a1.78,1.78,0,0,1-1.38.78c-.31,0-.47-.25-.47-.67a4.21,4.21,0,0,1,.05-.52l.07-.5c0-.27.07-.45.08-.55Z"/><path class="cls-1" d="M159.07,56.54c.12.08.17.15.17.21s-.18.44-.55.85c-.5.57-.95.83-1.38.79s-.46-.25-.46-.66c0-.18.06-.7.19-1.58.08-.57.16-1.14.25-1.7l.06-.43.05-.35a2.86,2.86,0,0,0,0-.37c0-.21-.06-.32-.17-.33-.33,0-.69.29-1.07,1a.35.35,0,0,1-.12-.23c0-.26.24-.58.72-1a1.74,1.74,0,0,1,1.14-.54c.31,0,.47.26.47.7a3.75,3.75,0,0,1-.05.52l0,.41s0,.21-.07.51L158,56.14l-.07.4c-.05.4-.08.66-.08.8s.05.27.16.28C158.33,57.66,158.7,57.3,159.07,56.54Zm-1.27-5.17c.18-.42.36-.84.53-1.26a2.72,2.72,0,0,0,1.17-.69.34.34,0,0,1,.07.19C159.57,50.17,159,50.76,157.8,51.37Z"/><path class="cls-1" d="M162.09,53.5c-.11.93-.21,1.85-.31,2.78a9.44,9.44,0,0,0-.08,1.11c0,.47.16.73.48.76s.72-.22,1.09-.76a.35.35,0,0,1,.1.22c0,.24-.21.5-.63.79a1.7,1.7,0,0,1-1.07.4c-.6-.06-.9-.47-.9-1.24a13.67,13.67,0,0,1,.1-1.37c.1-.92.21-1.85.31-2.78l-1.34-.12.74-.67.68.07.13-1.15.94-.22-.16,1.45,2.69.25-.74.67Z"/><path class="cls-1" d="M171.91,57.69c.12.08.17.15.17.21s-.18.44-.55.86a1.81,1.81,0,0,1-1.38.8c-.31,0-.46-.25-.46-.66,0-.17.06-.7.19-1.58.08-.57.16-1.13.25-1.7l.06-.43.05-.35a2.86,2.86,0,0,0,0-.37c0-.21-.06-.32-.17-.33-.33,0-.69.3-1.07,1a.33.33,0,0,1-.12-.22c0-.26.24-.59.72-1a1.79,1.79,0,0,1,1.14-.56c.31,0,.47.26.47.7a3.53,3.53,0,0,1-.05.51l-.05.42s0,.21-.07.51l-.26,1.79-.07.4c-.05.4-.08.67-.08.8s.05.28.16.29C171.17,58.82,171.54,58.45,171.91,57.69Zm-1.27-5.15c.18-.42.36-.85.53-1.27a2.66,2.66,0,0,0,1.17-.71.35.35,0,0,1,.06.19C172.41,51.32,171.82,51.92,170.64,52.54Z"/><path class="cls-1" d="M174.66,59.54l-.95.31,0-.18.05-.46.05-.44.33-2.92,0-.33c0-.27,0-.48,0-.64s-.07-.41-.21-.42c-.32,0-.66.31-1,1-.1-.09-.15-.16-.15-.22,0-.26.23-.58.7-1s.83-.6,1.09-.57.55.27.55.74c0,.11,0,.27,0,.47l0,.51-.05.43-.06.44a7.49,7.49,0,0,1,1.65-1.71,2.44,2.44,0,0,1,1.52-.62c.41,0,.61.33.61.9a5.88,5.88,0,0,1-.07.78c-.11.78-.23,1.56-.34,2.34a8,8,0,0,0-.11,1.11c0,.22.06.34.18.34.29,0,.66-.34,1.08-1.08.11.07.16.14.16.21,0,.27-.24.62-.71,1a1.83,1.83,0,0,1-1.16.59c-.33,0-.49-.28-.49-.75a10.09,10.09,0,0,1,.13-1.43l.23-1.52a8.83,8.83,0,0,0,.1-1.18c0-.34-.11-.51-.35-.53a2,2,0,0,0-1.64,1,4.29,4.29,0,0,0-1,2.29C174.77,58.53,174.71,59,174.66,59.54Z"/><path class="cls-1" d="M185.69,55.59l-1,.93a3.52,3.52,0,0,1-.15-1A3.12,3.12,0,0,1,185.69,53a4.2,4.2,0,0,1,3-.88l.52,0,.21,0h.08c0,.12,0,.21,0,.27a10.45,10.45,0,0,0,.86,3.19l.28.73c0,.11.1.28.19.51l.23.67c.13.36.24.71.34,1.05l.33-.53c.36-.59.69-1.12,1-1.61s.42-.7.62-1.05.33-.58.49-.87l.58-1c.06-.1.16-.29.32-.59l1.23-.72a23.35,23.35,0,0,0-.4,3.79c0,.69-.06,1.38-.08,2.07l0,.78a4,4,0,0,0,.13,1.3.55.55,0,0,0,.55.33,2.3,2.3,0,0,0,.81-.11.34.34,0,0,1,.05.14c0,.14-.14.24-.43.3l-.34.07-1.8.31c0-.4,0-.77,0-1.1a51.37,51.37,0,0,1,.28-5.74c-.58.81-1,1.46-1.32,2l-.38.64a17.08,17.08,0,0,0-1.26,2.54l-.91.91a13.1,13.1,0,0,0-1-3.41l-.25-.66c0-.07-.11-.26-.23-.57a10.69,10.69,0,0,1-.54-1.7c-.17,1-.34,2.08-.52,3.12a7.58,7.58,0,0,1-.47,1.9,1.74,1.74,0,0,1-.87.79l1.59.2-.8.71L185,60.48c.27-.25.54-.5.82-.74l.71.1a1.63,1.63,0,0,0,.6-.73,9.85,9.85,0,0,0,.41-1.8c.26-1.47.51-3,.77-4.42H188q-2.64-.15-2.64,1.59A2.38,2.38,0,0,0,185.69,55.59Z"/><path class="cls-1" d="M201.49,58.59a8,8,0,0,1-1.57,1.9,2.41,2.41,0,0,1-1.5.72c-.58,0-.87-.49-.87-1.42a4.74,4.74,0,0,1,1.27-3.31,3.88,3.88,0,0,1,3-1.36,3.6,3.6,0,0,1,1.12.18.93.93,0,0,1,0,.14l-.07.33c-.05.24-.08.37-.08.41-.14.93-.28,1.86-.41,2.8l-.06.4c-.05.4-.08.67-.08.81s.05.27.16.27c.35,0,.71-.39,1.08-1.18q.18.11.18.21c0,.15-.19.44-.55.89a2,2,0,0,1-1.38.9c-.31,0-.46-.22-.46-.63a4.12,4.12,0,0,1,0-.53l.07-.51.08-.55Zm.36-2.51a2.43,2.43,0,0,0-1.17-.34,1.7,1.7,0,0,0-1.49,1,5.45,5.45,0,0,0-.6,2.68c0,.55.16.82.49.83a2.09,2.09,0,0,0,1.36-.83,4.87,4.87,0,0,0,1.31-2.71Z"/><path class="cls-1" d="M206.47,56c-.1.93-.21,1.87-.31,2.81a9.72,9.72,0,0,0-.08,1.11c0,.48.16.72.49.72s.71-.29,1.08-.87a.33.33,0,0,1,.1.22c0,.23-.21.52-.63.85a1.85,1.85,0,0,1-1.07.5c-.6,0-.9-.39-.9-1.16,0-.28,0-.74.1-1.38.11-.93.21-1.87.31-2.8h-1.33l.73-.73h.68l.13-1.15.94-.31c-.05.49-.1,1-.16,1.46h2.7l-.75.74Z"/><path class="cls-1" d="M208.94,61l.88-.73a1.6,1.6,0,0,0,1.25.51.81.81,0,0,0,.91-.9c0-.33-.28-.77-.84-1.35l-.36-.37a2.25,2.25,0,0,1-.8-1.33,1.57,1.57,0,0,1,.64-1.25,2.52,2.52,0,0,1,1.57-.53,3.81,3.81,0,0,1,1.11.16l-.76.73a1.67,1.67,0,0,0-1.07-.34c-.46,0-.69.2-.69.59s.25.67.76,1.2l.4.41a2.44,2.44,0,0,1,.87,1.45,1.83,1.83,0,0,1-.76,1.43,2.8,2.8,0,0,1-3.11.32Z"/><path class="cls-1" d="M218.82,58.34a9.09,9.09,0,0,1-1.63,2,2.73,2.73,0,0,1-1.48.84c-.42,0-.63-.26-.63-.82,0-.2,0-.55.08-1,.08-.7.15-1.39.23-2.09,0,0,0-.15,0-.37l0-.41c0-.12,0-.23,0-.33s-.07-.37-.21-.36c-.32,0-.67.38-1,1.11a.26.26,0,0,1-.12-.2c0-.26.23-.62.7-1.07a2.07,2.07,0,0,1,1.11-.69c.36,0,.53.22.53.7,0,.12,0,.25,0,.4l-.06.49-.06.54c-.06.61-.13,1.22-.2,1.82,0,.31-.05.63-.05.94s.11.44.33.43c.47,0,1-.43,1.61-1.25a5.21,5.21,0,0,0,1.07-2.39c.07-.5.15-1,.22-1.51l1-.41c-.12.5-.21.94-.27,1.33-.13.89-.25,1.78-.38,2.67,0,.16,0,.3,0,.41l-.05.35c0,.22,0,.37,0,.46s.05.27.15.27c.36,0,.72-.44,1.1-1.25.11.06.17.12.17.19a2.35,2.35,0,0,1-.56.93A2.1,2.1,0,0,1,219,61c-.31,0-.47-.18-.47-.6a4.21,4.21,0,0,1,.05-.52l.07-.52c0-.27.06-.46.08-.56Z"/><path class="cls-1" d="M226.73,60.09l-.94.47,0-.18.05-.48,0-.44c.11-1,.22-1.92.32-2.88l.05-.33c0-.17,0-.33,0-.5,0-.41-.12-.6-.37-.58s-.85.46-1.36,1.3a5.63,5.63,0,0,0-.9,2.34c-.06.51-.11,1-.17,1.53l-1,.45,0-.18.05-.47.06-.45c.1-1,.21-2,.32-3l0-.34a5.84,5.84,0,0,0,0-.64c0-.27-.06-.4-.2-.39-.32,0-.66.4-1,1.14-.1-.07-.15-.14-.15-.2,0-.25.23-.61.7-1.08a2.09,2.09,0,0,1,1.1-.73c.37,0,.55.19.55.66q0,.18,0,.48l0,.51-.06.44-.05.45.18-.29c.95-1.59,1.83-2.43,2.65-2.5.39,0,.59.24.59.8,0,.1,0,.31-.05.62l-.07.59-.08.8a8.22,8.22,0,0,1,1.39-2.15,2.51,2.51,0,0,1,1.45-.95q.63-.06.63.75a5.85,5.85,0,0,1-.08.84c-.11.79-.22,1.59-.34,2.38a9.1,9.1,0,0,0-.11,1.15c0,.22.06.33.19.31s.32-.15.54-.41a3.44,3.44,0,0,0,.53-.88c.12.07.17.13.17.19,0,.27-.23.65-.71,1.15a2.23,2.23,0,0,1-1.13.79c-.36,0-.54-.19-.54-.67a11.8,11.8,0,0,1,.14-1.43c.08-.52.15-1,.23-1.55,0-.06,0-.18,0-.37s0-.21,0-.39a2.82,2.82,0,0,0,0-.42q0-.54-.36-.51-.6.06-1.38,1.32a5.66,5.66,0,0,0-.91,2.35C226.84,59.07,226.79,59.58,226.73,60.09Z"/><path class="cls-1" d="M233.7,59.77c-1,.12-1.43-.46-1.43-1.72A5.19,5.19,0,0,1,233.39,55a3.57,3.57,0,0,1,2.31-1.69c1-.13,1.45.43,1.45,1.7A5.22,5.22,0,0,1,236,58.07,3.53,3.53,0,0,1,233.7,59.77Zm.76-.8a1.67,1.67,0,0,0,1.23-1,4.26,4.26,0,0,0,.49-2.08q0-2-1.23-1.83a1.66,1.66,0,0,0-1.22,1,4.13,4.13,0,0,0-.49,2.08C233.24,58.46,233.65,59.07,234.46,59Z"/><path class="cls-1" d="M240.11,53.57c-.1,1-.21,1.9-.31,2.85-.05.51-.08.89-.08,1.13,0,.48.16.69.49.64s.71-.39,1.08-1a.29.29,0,0,1,.1.2c0,.24-.21.55-.63,1a2.18,2.18,0,0,1-1.07.66q-.9.14-.9-1a12.28,12.28,0,0,1,.11-1.4l.3-2.85-1.33.2.74-.85.67-.09.14-1.18.93-.45-.15,1.49,2.69-.43-.75.86Z"/><path class="cls-1" d="M244.3,58.22c-1,.17-1.43-.39-1.43-1.65A5.45,5.45,0,0,1,244,53.45a3.88,3.88,0,0,1,2.31-1.84c1-.18,1.45.36,1.45,1.62a5.53,5.53,0,0,1-1.12,3.15A3.88,3.88,0,0,1,244.3,58.22Zm.76-.85a1.81,1.81,0,0,0,1.23-1,4.45,4.45,0,0,0,.49-2.12c0-1.32-.41-1.9-1.23-1.75a1.82,1.82,0,0,0-1.22,1,4.3,4.3,0,0,0-.49,2.11C243.84,56.93,244.25,57.52,245.06,57.37Z"/><path class="cls-1" d="M55.84,55.5A5.93,5.93,0,0,1,53,57a2.25,2.25,0,0,1-2.12-.57A3.34,3.34,0,0,1,50.1,54a6.59,6.59,0,0,1,1.49-4.22,5.81,5.81,0,0,1,3.7-2.23,6.32,6.32,0,0,1,2.33.05l-.42,1-.12.29c-.1.23-.23.36-.38.38a.28.28,0,0,1-.13,0,.91.91,0,0,0,.09-.33c0-.28-.19-.5-.57-.65a2.49,2.49,0,0,0-1.32-.1,3.75,3.75,0,0,0-2.54,1.69,6,6,0,0,0-.95,3.46,3.2,3.2,0,0,0,.66,2.22,1.93,1.93,0,0,0,1.86.51,4,4,0,0,0,2.12-1.22c.08-.77.17-1.55.26-2.33l-1.08.18a6.27,6.27,0,0,0-1.76.52,2.4,2.4,0,0,1,.6-.92A2.54,2.54,0,0,1,55,52l.64-.12,1.69-.27-.06.27-.1.42a5.2,5.2,0,0,0-.12.63c-.09.87-.19,1.73-.28,2.6a10.49,10.49,0,0,1-.37,2,4.3,4.3,0,0,1-.75,1.3,4.07,4.07,0,0,1-2.49,1.52,2.14,2.14,0,0,1-2.07-.53l.94-.93a1.56,1.56,0,0,0,1.79.8,1.83,1.83,0,0,0,1.32-.79,5.67,5.67,0,0,0,.58-2.21Z"/><path class="cls-1" d="M60.83,52.09c.94-1.91,1.86-2.92,2.77-3a1.56,1.56,0,0,1,.71.08l-.89,1.09a1,1,0,0,0-.52,0c-.44,0-.9.47-1.39,1.24a5.45,5.45,0,0,0-.86,2.34l-.17,1.58-.95.45,0-.2.05-.42,0-.42L60,51.69l0-.34a5.25,5.25,0,0,0,0-.61q0-.39-.21-.36c-.34,0-.68.46-1,1.23-.11-.07-.16-.14-.16-.23a2.27,2.27,0,0,1,.71-1.12,2.33,2.33,0,0,1,1.09-.8c.36,0,.54.17.54.64,0,.12,0,.27,0,.47L61,51l-.06.54Z"/><path class="cls-1" d="M65.65,55.06c-1,.11-1.43-.46-1.43-1.73a5.19,5.19,0,0,1,1.12-3.06,3.44,3.44,0,0,1,2.31-1.66c1-.1,1.45.49,1.45,1.75a5.11,5.11,0,0,1-1.12,3A3.53,3.53,0,0,1,65.65,55.06Zm.77-.79a1.65,1.65,0,0,0,1.22-.94,4.13,4.13,0,0,0,.49-2.08c0-1.32-.41-1.94-1.23-1.85a1.64,1.64,0,0,0-1.22,1,4.12,4.12,0,0,0-.49,2.07C65.19,53.74,65.6,54.36,66.42,54.27Z"/><path class="cls-1" d="M71.47,54.48a17.53,17.53,0,0,0-.21-2.78l-.21-1.32c-.11-.76-.32-1.14-.6-1.13s-.55.34-.68,1a.21.21,0,0,1-.2-.23A1.87,1.87,0,0,1,70,48.94c.31-.4.58-.61.84-.63s.66.25.88.85a15.62,15.62,0,0,1,.55,3.12l0,.38A23.51,23.51,0,0,0,74,48.79l.76-.78c0,.57.1,1,.14,1.32l.15,1,.11.7.28,1.61.15-.26a9.67,9.67,0,0,0,1.47-3.17.69.69,0,0,0-.38-.6l.76-.77a.71.71,0,0,1,.47.66,4.31,4.31,0,0,1-.72,1.76l-.39.67c-.16.28-.31.57-.47.86a8.72,8.72,0,0,0-.75,1.64l-.76.81c-.06-.76-.17-1.55-.31-2.38l-.11-.59-.28-1.47-.29.57a22.8,22.8,0,0,0-1.37,3.14Z"/><path class="cls-1" d="M87,51.05a10.14,10.14,0,0,1-1.35,2c-.47.51-.85.78-1.14.79s-.64-.41-.68-1.27l0-.88-.09-1.79v-.51c0-.68-.17-1-.38-1s-.65.33-1,1a.33.33,0,0,1-.17-.25c0-.22.21-.53.62-.91a1.76,1.76,0,0,1,1-.57.55.55,0,0,1,.57.34,3.93,3.93,0,0,1,.21,1.32l.12,2.21c0,.85.18,1.27.41,1.26s.76-.41,1.27-1.2a6.77,6.77,0,0,0,1-2.33l.24-1.3,1.13-.41a11.53,11.53,0,0,0-.44,1.69c-.29,1.43-.57,2.85-.85,4.27a8.17,8.17,0,0,1-1.55,3.72A4.94,4.94,0,0,1,82.28,59a3,3,0,0,1-1-.15l.78-.89a3.09,3.09,0,0,0,1.24.22,2.44,2.44,0,0,0,2-.91,8,8,0,0,0,1.11-3.16Z"/><path class="cls-1" d="M91.08,53.7c-1,0-1.43-.62-1.43-1.88a4.74,4.74,0,0,1,1.11-3,3.08,3.08,0,0,1,2.32-1.41c1,0,1.45.64,1.45,1.9a4.65,4.65,0,0,1-1.12,2.94A3.08,3.08,0,0,1,91.08,53.7Zm.76-.71a1.43,1.43,0,0,0,1.23-.81,3.92,3.92,0,0,0,.49-2c0-1.32-.41-2-1.23-2a1.41,1.41,0,0,0-1.22.82,3.83,3.83,0,0,0-.49,2C90.62,52.33,91,53,91.84,53Z"/><path class="cls-1" d="M100.1,51.15A8.41,8.41,0,0,1,98.47,53a2.55,2.55,0,0,1-1.48.74q-.63,0-.63-.84a8.51,8.51,0,0,1,.08-1c.07-.69.15-1.39.23-2.08,0,0,0-.15,0-.37l0-.41c0-.12,0-.23,0-.33s-.06-.37-.2-.37c-.33,0-.67.35-1,1.07a.29.29,0,0,1-.12-.21c0-.26.24-.61.71-1a1.9,1.9,0,0,1,1.11-.63c.35,0,.53.25.53.73a3,3,0,0,1,0,.4l0,.49-.06.53c-.07.6-.13,1.21-.2,1.81,0,.31,0,.62,0,.94s.11.44.32.45c.48,0,1-.38,1.62-1.15a4.92,4.92,0,0,0,1.07-2.31c.07-.5.14-1,.22-1.5l1-.32c-.12.49-.21.92-.27,1.31-.13.88-.26,1.76-.38,2.64,0,.16,0,.29-.06.4l0,.35a3.53,3.53,0,0,0,0,.45c0,.19,0,.28.15.28.36,0,.73-.37,1.1-1.15.12.07.17.14.17.21a2,2,0,0,1-.55.87,1.89,1.89,0,0,1-1.38.88c-.31,0-.46-.22-.46-.64a3.88,3.88,0,0,1,0-.52c0-.17.05-.34.08-.51s.06-.46.07-.56S100.08,51.3,100.1,51.15Z"/><path class="cls-1" d="M105.12,50.41c.94-1.74,1.87-2.59,2.78-2.55a1.77,1.77,0,0,1,.71.2l-.9.94a1,1,0,0,0-.52-.14c-.44,0-.9.31-1.39,1a4.57,4.57,0,0,0-.86,2.19c-.06.51-.11,1-.17,1.54l-.94.28v-.19l0-.41,0-.41.33-3,0-.33a5.47,5.47,0,0,0,0-.61c0-.26-.08-.39-.22-.39-.34,0-.68.33-1,1-.11-.09-.16-.17-.15-.26,0-.26.24-.59.7-1a1.85,1.85,0,0,1,1.1-.59c.36,0,.54.26.54.73a3,3,0,0,1,0,.46l0,.44-.06.53Z"/><path class="cls-1" d="M114,54.44c-1-.06-1.43-.72-1.43-2a4.45,4.45,0,0,1,1.12-2.87A2.85,2.85,0,0,1,116,48.32c1,.07,1.45.73,1.45,2a4.43,4.43,0,0,1-1.12,2.87A2.88,2.88,0,0,1,114,54.44Zm.77-.67A1.31,1.31,0,0,0,116,53a3.65,3.65,0,0,0,.49-2c0-1.32-.41-2-1.23-2.06a1.3,1.3,0,0,0-1.21.74,3.65,3.65,0,0,0-.5,2C113.54,53,114,53.72,114.77,53.77Z"/><path class="cls-1" d="M119.83,54.81a18.11,18.11,0,0,0-.21-2.81l-.21-1.36c-.12-.77-.32-1.18-.61-1.22s-.55.25-.67.9a.27.27,0,0,1-.21-.27,1.61,1.61,0,0,1,.46-1,1.13,1.13,0,0,1,.83-.5c.38,0,.67.36.88,1a15.67,15.67,0,0,1,.55,3.2l0,.39a21.32,21.32,0,0,0,1.67-3.62l.75-.66c.05.57.1,1,.15,1.33l.15,1,.11.72c.09.55.18,1.1.28,1.65l.15-.24a8.25,8.25,0,0,0,1.47-3,.84.84,0,0,0-.39-.66l.77-.66a.87.87,0,0,1,.47.73,3.78,3.78,0,0,1-.72,1.66l-.39.61-.48.8a8.52,8.52,0,0,0-.75,1.53l-.76.7c-.06-.77-.16-1.58-.31-2.43l-.11-.6-.27-1.51-.3.52A20.62,20.62,0,0,0,120.8,54Z"/><path class="cls-1" d="M128.56,55.14l-1,.3,0-.17.05-.47,0-.44.33-2.92,0-.33a5.55,5.55,0,0,0,0-.63c0-.27-.07-.41-.2-.42-.32,0-.66.3-1,1-.09-.09-.14-.16-.14-.22,0-.26.23-.58.69-1a1.79,1.79,0,0,1,1.1-.57c.36,0,.55.28.55.75,0,.12,0,.28,0,.47l0,.51-.05.43-.05.45a7,7,0,0,1,1.64-1.7,2.39,2.39,0,0,1,1.52-.6c.41,0,.62.34.62.91a7.82,7.82,0,0,1-.07.78c-.12.78-.23,1.55-.35,2.33a7.85,7.85,0,0,0-.1,1.12c0,.22.06.33.18.34.29,0,.65-.33,1.08-1.06q.15.1.15.21c0,.27-.24.61-.71,1a1.76,1.76,0,0,1-1.15.56c-.33,0-.5-.28-.5-.75a10.37,10.37,0,0,1,.14-1.43c.07-.51.15-1,.22-1.52a8.86,8.86,0,0,0,.11-1.18c0-.33-.12-.51-.35-.53a2,2,0,0,0-1.65,1,4.3,4.3,0,0,0-1,2.28Z"/><path class="cls-1" d="M140.32,51.26l-.51,5.09a10,10,0,0,1-.53,2.6,3.91,3.91,0,0,1-1.16,1.54,3.5,3.5,0,0,1-2.63.82,2.38,2.38,0,0,1-.75-.23l.84-.69a3,3,0,0,0,1,.27c1.25.12,2-.76,2.17-2.63.05-.52.11-1,.16-1.56.18-1.76.35-3.53.53-5.29l-1.15-.11.73-.67.5.05,0-.37a5.92,5.92,0,0,1,1.36-3.53,3.33,3.33,0,0,1,2.9-1,7,7,0,0,1,.76.14l-.89.78a2.85,2.85,0,0,0-.94-.27,1.51,1.51,0,0,0-1.55.61,7,7,0,0,0-.67,2.83c0,.31-.07.62-.1.92l2.57.25-.75.67Z"/><path class="cls-1" d="M144.71,53.46c.94-1.69,1.86-2.49,2.77-2.4a1.79,1.79,0,0,1,.71.23l-.9.89a1.07,1.07,0,0,0-.52-.16c-.44-.05-.9.27-1.39.93a4.46,4.46,0,0,0-.86,2.14c-.05.51-.11,1-.17,1.53l-.94.23,0-.19,0-.41.05-.41c.11-1,.22-2,.34-3l0-.33a5.47,5.47,0,0,0,.05-.61c0-.25-.07-.39-.22-.4-.34,0-.67.29-1,1-.1-.09-.16-.18-.15-.26,0-.26.25-.58.71-1a1.75,1.75,0,0,1,1.09-.53c.36,0,.54.29.54.77,0,.11,0,.26,0,.46l-.05.44-.06.52Z"/><path class="cls-1" d="M152.9,55.17a7.73,7.73,0,0,1-1.63,1.73,2.35,2.35,0,0,1-1.48.62c-.42,0-.63-.34-.63-.89,0-.21,0-.55.08-1l.23-2s0-.15,0-.37l0-.41c0-.12,0-.23,0-.32q0-.37-.21-.39c-.32,0-.67.29-1,1a.29.29,0,0,1-.12-.21c0-.26.23-.59.7-1a1.72,1.72,0,0,1,1.11-.54c.36,0,.53.29.53.77,0,.12,0,.25,0,.4l-.06.48-.06.53c-.06.6-.13,1.2-.2,1.8,0,.3-.05.61-.05.93s.11.45.33.47c.47.05,1-.29,1.61-1a4.47,4.47,0,0,0,1.07-2.23c.07-.5.15-1,.22-1.49l1-.25q-.18.72-.27,1.29c-.13.87-.25,1.74-.38,2.61,0,.16,0,.3-.05.4l0,.35q0,.32,0,.45c0,.18,0,.28.15.29.36,0,.72-.33,1.1-1.08.11.08.17.15.17.22s-.19.43-.56.84a1.75,1.75,0,0,1-1.37.78c-.31,0-.47-.25-.47-.67a4.21,4.21,0,0,1,.05-.52l.07-.5c0-.27.06-.46.08-.55Z"/><path class="cls-1" d="M158.93,56.4c.11.08.17.15.17.21s-.18.44-.55.85-1,.83-1.38.78-.46-.25-.46-.66c0-.17.06-.69.19-1.57.08-.57.16-1.14.25-1.71l.06-.43,0-.34a2.86,2.86,0,0,0,0-.37c0-.21-.06-.32-.18-.34-.32,0-.68.3-1.06,1a.35.35,0,0,1-.12-.23c0-.26.24-.58.72-1a1.82,1.82,0,0,1,1.14-.55c.31,0,.47.27.47.71a3.53,3.53,0,0,1,0,.51l-.06.42s0,.2-.07.51L157.82,56l-.06.4c0,.39-.08.66-.08.8s0,.27.16.28C158.19,57.52,158.55,57.16,158.93,56.4Zm-1.27-5.17c.18-.42.36-.84.53-1.26a2.64,2.64,0,0,0,1.17-.7.38.38,0,0,1,.06.19C159.42,50,158.84,50.62,157.66,51.23Z"/><path class="cls-1" d="M161.94,53.36l-.3,2.78a9.44,9.44,0,0,0-.08,1.1c0,.48.16.74.48.77s.72-.22,1.09-.77a.48.48,0,0,1,.1.23c0,.24-.21.5-.63.79a1.73,1.73,0,0,1-1.08.4c-.6-.06-.9-.47-.9-1.24,0-.29,0-.74.11-1.37.1-.93.2-1.85.31-2.78l-1.34-.12.74-.67.68.06.13-1.14.94-.22L162,52.63l2.69.25-.74.67Z"/><path class="cls-1" d="M171.77,57.55c.11.08.17.15.17.21s-.18.44-.55.86a1.81,1.81,0,0,1-1.38.8c-.31,0-.46-.25-.46-.66,0-.17.06-.7.19-1.58l.24-1.7c0-.15.05-.29.07-.44l0-.34a2.86,2.86,0,0,0,0-.37q0-.31-.18-.33c-.32,0-.68.3-1.06,1a.33.33,0,0,1-.12-.22c0-.26.24-.59.72-1a1.74,1.74,0,0,1,1.14-.56c.31,0,.47.26.47.7a3.66,3.66,0,0,1,0,.51l-.06.42s0,.21-.07.51l-.26,1.79-.06.4c0,.4-.08.67-.08.8s0,.28.16.29C171,58.68,171.39,58.31,171.77,57.55ZM170.5,52.4c.18-.42.36-.85.53-1.27a2.75,2.75,0,0,0,1.17-.71.33.33,0,0,1,.06.19C172.26,51.18,171.68,51.77,170.5,52.4Z"/><path class="cls-1" d="M174.52,59.4l-1,.31,0-.18,0-.46.05-.44.33-2.92,0-.34q0-.39,0-.63c0-.27-.06-.41-.2-.42-.32,0-.66.31-1,1a.38.38,0,0,1-.15-.22c0-.26.23-.59.7-1a1.77,1.77,0,0,1,1.09-.57c.37,0,.55.28.55.74q0,.18,0,.48l-.05.51,0,.43-.06.44a7.73,7.73,0,0,1,1.64-1.72,2.44,2.44,0,0,1,1.52-.61c.41,0,.62.33.62.9a5.63,5.63,0,0,1-.07.77c-.11.78-.23,1.56-.34,2.34a8.13,8.13,0,0,0-.11,1.12c0,.22.06.33.18.34q.44,0,1.08-1.08c.1.07.15.14.15.2,0,.28-.23.62-.7,1a1.83,1.83,0,0,1-1.16.58c-.33,0-.49-.27-.49-.74a10.33,10.33,0,0,1,.13-1.44l.22-1.51a7.65,7.65,0,0,0,.11-1.18c0-.34-.11-.51-.35-.53a2,2,0,0,0-1.64,1,4.29,4.29,0,0,0-1,2.29C174.63,58.39,174.57,58.89,174.52,59.4Z"/><path class="cls-1" d="M185.54,55.45l-1,.93a3.52,3.52,0,0,1-.15-1,3.12,3.12,0,0,1,1.19-2.54,4.2,4.2,0,0,1,3-.88l.52,0,.21,0h.08c0,.12,0,.21,0,.27a10.54,10.54,0,0,0,.85,3.18c.1.25.2.5.29.74l.19.51.23.67a10.59,10.59,0,0,1,.33,1.05l.33-.53c.37-.59.69-1.13,1-1.61s.42-.7.62-1,.32-.58.49-.87l.58-1,.32-.59,1.23-.72a23.24,23.24,0,0,0-.4,3.78l-.09,2.08,0,.78a4.31,4.31,0,0,0,.13,1.3.57.57,0,0,0,.56.33,2.56,2.56,0,0,0,.81-.11.3.3,0,0,1,0,.14c0,.14-.14.24-.43.3l-.34.07-1.8.31c0-.4,0-.77,0-1.1a51,51,0,0,1,.29-5.74c-.58.8-1,1.46-1.32,2-.12.21-.25.42-.38.63a17.66,17.66,0,0,0-1.26,2.55l-.91.91a13.26,13.26,0,0,0-.95-3.42c-.08-.21-.17-.43-.25-.65l-.23-.57a10.69,10.69,0,0,1-.54-1.7c-.17,1-.35,2.08-.52,3.11a7.57,7.57,0,0,1-.47,1.91,1.74,1.74,0,0,1-.87.79l1.59.2-.81.71-2.7-.29c.27-.25.54-.5.82-.74l.71.1A1.63,1.63,0,0,0,187,59a10.08,10.08,0,0,0,.41-1.8c.26-1.47.51-3,.76-4.42l-.29,0c-1.77-.09-2.65.44-2.65,1.6A2.38,2.38,0,0,0,185.54,55.45Z"/><path class="cls-1" d="M201.35,58.45a7.79,7.79,0,0,1-1.58,1.9,2.39,2.39,0,0,1-1.49.72c-.58,0-.87-.49-.87-1.42a4.7,4.7,0,0,1,1.27-3.31,3.81,3.81,0,0,1,3-1.36,3.6,3.6,0,0,1,1.12.18c0,.07,0,.12,0,.14l-.07.33-.09.41c-.13.93-.27,1.86-.4,2.8l-.06.4c0,.4-.08.67-.08.8s.05.28.16.28c.35,0,.71-.39,1.08-1.18.12.07.17.14.17.21a2.17,2.17,0,0,1-.54.89,2,2,0,0,1-1.38.9c-.31,0-.46-.22-.46-.63a4,4,0,0,1,0-.53l.07-.51.08-.55Zm.36-2.51a2.32,2.32,0,0,0-1.17-.34,1.7,1.7,0,0,0-1.49,1,5.41,5.41,0,0,0-.6,2.67c0,.55.16.83.49.84a2.09,2.09,0,0,0,1.36-.83,4.87,4.87,0,0,0,1.31-2.71Z"/><path class="cls-1" d="M206.33,55.83c-.11.93-.21,1.87-.31,2.8a10,10,0,0,0-.08,1.12q0,.72.48.72c.35,0,.72-.29,1.09-.87a.39.39,0,0,1,.1.22c0,.23-.21.52-.63.85a1.87,1.87,0,0,1-1.08.5c-.6,0-.9-.39-.9-1.16,0-.28,0-.74.11-1.38.1-.93.2-1.87.31-2.8h-1.34l.74-.73h.68l.13-1.15.94-.32c0,.49-.11,1-.16,1.47l2.69,0-.74.75Z"/><path class="cls-1" d="M208.8,60.81l.88-.73a1.58,1.58,0,0,0,1.24.51.81.81,0,0,0,.92-.9,2.36,2.36,0,0,0-.84-1.35l-.36-.37a2.25,2.25,0,0,1-.8-1.33,1.54,1.54,0,0,1,.64-1.25,2.5,2.5,0,0,1,1.57-.53,3.81,3.81,0,0,1,1.11.16l-.76.73a1.67,1.67,0,0,0-1.07-.34c-.47,0-.7.2-.7.59s.26.67.77,1.2l.4.41a2.44,2.44,0,0,1,.87,1.45,1.81,1.81,0,0,1-.77,1.43,2.77,2.77,0,0,1-1.77.64A2.67,2.67,0,0,1,208.8,60.81Z"/><path class="cls-1" d="M218.68,58.2a9.09,9.09,0,0,1-1.63,2,2.8,2.8,0,0,1-1.48.84c-.42,0-.63-.26-.63-.82,0-.21,0-.55.08-1,.08-.7.15-1.39.23-2.09,0,0,0-.15,0-.37l0-.41c0-.13,0-.24,0-.33q0-.37-.21-.36c-.32,0-.67.38-1,1.11a.26.26,0,0,1-.12-.2c0-.26.23-.62.7-1.07a2.07,2.07,0,0,1,1.11-.69c.35,0,.53.22.53.7a3,3,0,0,1,0,.4l-.05.49-.06.54c-.06.61-.13,1.21-.2,1.82,0,.31-.05.63-.05.94s.11.44.33.43c.47,0,1-.44,1.61-1.25a5.36,5.36,0,0,0,1.07-2.39c.07-.5.15-1,.22-1.51l1-.41c-.12.5-.21.94-.27,1.33-.13.89-.25,1.78-.38,2.67,0,.16,0,.3-.05.41l0,.35c0,.22,0,.37,0,.46s.05.27.16.26c.36,0,.72-.43,1.09-1.24.12.06.18.12.18.19a2.35,2.35,0,0,1-.56.93,2.09,2.09,0,0,1-1.38,1c-.3,0-.46-.18-.46-.6a4.52,4.52,0,0,1,.05-.53l.07-.51c0-.27.06-.46.07-.56Z"/><path class="cls-1" d="M226.59,60l-.94.46,0-.17.05-.48,0-.45c.11-1,.21-1.91.32-2.87l0-.33c0-.17,0-.34,0-.5,0-.41-.12-.6-.37-.58s-.85.46-1.37,1.3a5.76,5.76,0,0,0-.89,2.33c-.06.52-.11,1-.17,1.54l-.95.45,0-.18.05-.47.05-.45.33-3,0-.34a5.55,5.55,0,0,0,0-.63c0-.27-.07-.4-.2-.4-.32,0-.66.41-1,1.15-.1-.08-.15-.14-.15-.2,0-.25.23-.61.7-1.08a2.09,2.09,0,0,1,1.1-.73c.36,0,.55.19.55.66a3.26,3.26,0,0,1,0,.47l-.05.52-.05.44,0,.45.18-.29c1-1.6,1.83-2.43,2.64-2.5.4,0,.6.24.6.8a6.17,6.17,0,0,1-.06.62l-.06.59-.09.8a8.56,8.56,0,0,1,1.4-2.16,2.49,2.49,0,0,1,1.45-.94c.41-.05.62.2.62.74a5.46,5.46,0,0,1-.07.84c-.11.8-.22,1.6-.34,2.39a9.14,9.14,0,0,0-.11,1.14c0,.23.06.33.19.32s.32-.15.54-.42a3.22,3.22,0,0,0,.53-.87c.11.06.17.13.17.19,0,.27-.24.65-.71,1.15a2.23,2.23,0,0,1-1.13.79c-.36,0-.54-.19-.54-.68a9.93,9.93,0,0,1,.14-1.42c.07-.52.15-1,.22-1.56,0-.05,0-.17.05-.36s0-.21,0-.39,0-.33,0-.43c0-.36-.11-.52-.35-.5q-.6.06-1.38,1.32a5.66,5.66,0,0,0-.91,2.35C226.7,58.93,226.65,59.44,226.59,60Z"/><path class="cls-1" d="M233.55,59.63c-1,.12-1.42-.46-1.42-1.72a5.24,5.24,0,0,1,1.11-3.07,3.66,3.66,0,0,1,2.32-1.7c1-.12,1.45.44,1.45,1.7a5.27,5.27,0,0,1-1.12,3.09A3.54,3.54,0,0,1,233.55,59.63Zm.77-.8a1.64,1.64,0,0,0,1.22-1,4.17,4.17,0,0,0,.5-2.09c0-1.32-.41-1.92-1.24-1.82a1.66,1.66,0,0,0-1.21,1A4.12,4.12,0,0,0,233.1,57C233.1,58.31,233.51,58.93,234.32,58.83Z"/><path class="cls-1" d="M240,53.43c-.1,1-.21,1.9-.31,2.85a10.15,10.15,0,0,0-.08,1.13c0,.48.16.69.49.64s.71-.4,1.08-1a.29.29,0,0,1,.1.2c0,.24-.21.55-.63,1a2.26,2.26,0,0,1-1.07.66q-.9.14-.9-1c0-.29,0-.75.1-1.4.1-.95.21-1.9.31-2.85l-1.33.19.73-.84.68-.1.13-1.17.94-.45c-.05.49-.1,1-.16,1.49.9-.14,1.8-.28,2.7-.44l-.75.86Z"/><path class="cls-1" d="M244.15,58.08c-1,.16-1.42-.39-1.42-1.65a5.51,5.51,0,0,1,1.11-3.13,3.94,3.94,0,0,1,2.32-1.83c1-.18,1.45.35,1.45,1.62a5.55,5.55,0,0,1-1.12,3.15A3.87,3.87,0,0,1,244.15,58.08Zm.77-.85a1.83,1.83,0,0,0,1.23-1,4.45,4.45,0,0,0,.49-2.12c0-1.32-.41-1.9-1.24-1.75a1.83,1.83,0,0,0-1.21,1,4.29,4.29,0,0,0-.49,2.1C243.7,56.79,244.11,57.38,244.92,57.23Z"/><text class="cls-2" transform="translate(48.02 40.21)">G<tspan class="cls-3" x="19.86" y="0">r</tspan><tspan x="31.92" y="0">een</tspan><tspan class="cls-4" x="71.15" y="0">R</tspan><tspan x="95.13" y="0">oad</tspan><tspan class="cls-5" x="138.78" y="0">F</tspan><tspan class="cls-6" x="157.89" y="0">arm</tspan></text><text class="cls-2" transform="translate(47.73 39.93)">G<tspan class="cls-3" x="19.86" y="0">r</tspan><tspan x="31.92" y="0">een</tspan><tspan class="cls-4" x="71.15" y="0">R</tspan><tspan x="95.13" y="0">oad</tspan><tspan class="cls-5" x="138.78" y="0">F</tspan><tspan class="cls-6" x="157.89" y="0">arm</tspan></text><text class="cls-2" transform="translate(47.87 40.07)">G<tspan class="cls-3" x="19.86" y="0">r</tspan><tspan x="31.92" y="0">een</tspan><tspan class="cls-4" x="71.15" y="0">R</tspan><tspan x="95.13" y="0">oad</tspan><tspan class="cls-5" x="138.78" y="0">F</tspan><tspan class="cls-6" x="157.89" y="0">arm</tspan></text><text class="cls-2" transform="translate(47.59 39.79)">G<tspan class="cls-3" x="19.86" y="0">r</tspan><tspan x="31.92" y="0">een</tspan><tspan class="cls-4" x="71.15" y="0">R</tspan><tspan x="95.13" y="0">oad</tspan><tspan class="cls-5" x="138.78" y="0">F</tspan><tspan class="cls-6" x="157.89" y="0">arm</tspan></text><path class="cls-1" d="M52.5,48h0a3.21,3.21,0,0,1-3.29-3.1h0c0-1.7,6.9-3.09,8.71-3.09H52.5a3.2,3.2,0,0,1,3.29,3.09h0A3.21,3.21,0,0,1,52.5,48Z"/><path class="cls-7" d="M4.47,59.33C20,49.89,75.21,38.13,122.24,43.57c48.88,5.65,132.6,11.68,148.1-.47,6.81-5.34-4.86-11-5.29-11,1.71.25,9.3,3.19,10.48,6.73,2.43,7.31-1.32,16.4-24,20.54-39,7.12-113.29-1.49-127-1.94C83.07,56,50.62,68.58,50.62,68.58S4,59.58,4.47,59.33Z"/><text class="cls-8" transform="translate(75.07 12.6)">グリーンロードファーム</text><path class="cls-9" d="M19.07,58.34c1.2-4.12,1.13-9.53,1-13.9-.07-3.5.11-7.26,0-7.5-1-1.56-2.94-3.85-4.26-4.36a17.07,17.07,0,0,0-5.38-1c-1.55,0-4.44.17-4.44.17a24,24,0,0,1,3.78-.56,3.12,3.12,0,0,0,.72-.09,44.52,44.52,0,0,0-3.8-2.63A14.25,14.25,0,0,0,4,27s.78,0,3.26,1.5,4.43,2.74,4.43,2.74a18.44,18.44,0,0,0,2.13.26l1.69.08a27.39,27.39,0,0,1-4.27-3.45c-2.39-2.3-7.46-9-7.46-9s1.88,2.1,3.91,4.42c2.2,2.51,3.55,3.75,3.55,3.75a19.37,19.37,0,0,1-.94-6.16c0-1.28,0-1.87,0-1.87a46.91,46.91,0,0,0,1.07,6.89c.55,1.56,1.36,2.67,4,4.52A35.45,35.45,0,0,1,20.21,35s1.18-9,1.09-9.33a18.76,18.76,0,0,0-2-4A21.15,21.15,0,0,0,17,18.94a5.51,5.51,0,0,0-1.34-.18,9.06,9.06,0,0,0-1.48.1,4.91,4.91,0,0,1,1.13-.18,11.49,11.49,0,0,1,1.46,0S14.9,17.1,12.34,15A19.35,19.35,0,0,1,9.4,12.32s1.6,1.32,3.15,2.56c.77.63,2.94,2.15,4.39,3.48a23.4,23.4,0,0,1,2.73,3s0,0,0-.75A7.38,7.38,0,0,1,19.84,19s0,.86,0,1.7A7,7,0,0,0,20,21.8l1.45,2.66A34.8,34.8,0,0,0,21.74,18a12.37,12.37,0,0,0-1.51-6,22,22,0,0,0-3.59-1.33s1.82.28,2.33.4.91.27.91.27A32.55,32.55,0,0,0,17.72,8.7,9.37,9.37,0,0,0,14,6.21a15.71,15.71,0,0,0-2-.56l.75.1a6.94,6.94,0,0,1,1.3.3s.08,0,.23-.39a3.8,3.8,0,0,0,.27-1,3.75,3.75,0,0,1-.07.94,2.35,2.35,0,0,1-.22.51,9.59,9.59,0,0,1,3.81,2.41,18.28,18.28,0,0,1,3.49,4.74,18.2,18.2,0,0,1,1-3.92,19.66,19.66,0,0,1,1.73-2.86,10.92,10.92,0,0,0,.54-2.71s0,1.11,0,1.52c0,.25-.14.93-.14.93A13.7,13.7,0,0,1,26,4.85a8,8,0,0,1,2-1.12,13,13,0,0,0-2.57,1.91,12.17,12.17,0,0,0-2.57,4,12,12,0,0,0-.8,4.28s1.44-1,2.63-2a15.8,15.8,0,0,0,2.7-2.75c.26-.29.92-1.36.92-1.36a10,10,0,0,1-2.12,3.24c-1.42,1.58-3.05,2.67-3.87,3.59,0,0,.25,1.55.42,3.18s.29,3.41.29,3.41a32.37,32.37,0,0,1,3.55-4.19,12.73,12.73,0,0,1,2.86-2.19A26.64,26.64,0,0,0,26,18.28a21.77,21.77,0,0,0-2.82,4.37V25a49.15,49.15,0,0,1,3.87-3.37,15.52,15.52,0,0,1,3.8-2.19c.82-.37,2.08-.78,2.08-.78a36.76,36.76,0,0,1,1.18-5.24,36.23,36.23,0,0,1,3.13-6.11,38.75,38.75,0,0,0-2.67,6.14,28.34,28.34,0,0,0-1,5.12,20.12,20.12,0,0,0,2.63-.85,6.81,6.81,0,0,0,3-2.21,4.83,4.83,0,0,1-1.8,1.94,14.83,14.83,0,0,1-3.39,1.48,13.5,13.5,0,0,0,3.33,0A10.91,10.91,0,0,0,40.31,18a6,6,0,0,1-2.24,1c-1.59.5-4.18.19-4.78.3A15.11,15.11,0,0,0,27.73,22a15.71,15.71,0,0,0-4.53,4.3s-.58,5.35-.7,7.45a16,16,0,0,0,0,2.13,16.45,16.45,0,0,1,3-2.14c1.23-.68,3.53-1.74,4.83-2.51a9.8,9.8,0,0,0,3.07-3.11,6.92,6.92,0,0,0,.77-2.05A8.33,8.33,0,0,1,33.71,28a6.27,6.27,0,0,1-1.57,2.32c-.23.23-.64.58-.64.58a9.2,9.2,0,0,0,2.5-.76,27.68,27.68,0,0,0,3.1-1.73,22,22,0,0,0,2-1.58,6.81,6.81,0,0,0,1.06-1.23,6,6,0,0,1-.9,1.29,15.9,15.9,0,0,1-2.12,1.89,29.38,29.38,0,0,1-2.94,1.82s1.74-.14,3.44-.45,3.21-.65,3.21-.65A46.27,46.27,0,0,1,36,30.78c-1.32.22-4.79,1.35-4.79,1.35a20.59,20.59,0,0,0,2.32,2.31,16.41,16.41,0,0,0,4.27,2.48,12.45,12.45,0,0,1-4.89-2.24,18.56,18.56,0,0,1-2.38-2.22S27.67,34,26.18,35a10,10,0,0,0-3.5,3.84,48.41,48.41,0,0,0,.43,5.85c.39,1.89.8,4.54,1.39,7.42.35,1.69.45,3,.54,3.73a19.5,19.5,0,0,1,.12,3.5Z"/><path class="cls-9" d="M2.14,32.42s.43-.48.68-.7a4,4,0,0,1,1.38-.79,2.54,2.54,0,0,1,1.59,0,1.39,1.39,0,0,1,.7.66s-1,.11-1.73.25a15.32,15.32,0,0,0-1.93.45s1.69-.32,2.83-.41c.44,0,.84-.05.84-.05a1.41,1.41,0,0,1-.19.5,1.62,1.62,0,0,1-.63.55A4.18,4.18,0,0,1,3.75,33,5.76,5.76,0,0,1,2.14,32.42Z"/><path class="cls-9" d="M0,25.66s.73-.26,1.12-.35A4.79,4.79,0,0,1,3,25.25a3,3,0,0,1,1.69.89,1.63,1.63,0,0,1,.37,1.1s-1.07-.42-2-.72a18.92,18.92,0,0,0-2.31-.61s2,.62,3.24,1.17c.48.2.92.42.92.42a1.51,1.51,0,0,1-.48.42,1.9,1.9,0,0,1-1,.23,5,5,0,0,1-2.11-1A6.58,6.58,0,0,1,0,25.66Z"/><path class="cls-9" d="M.24,15.38s.9.15,1.36.28a5.61,5.61,0,0,1,2,1,3.53,3.53,0,0,1,1.25,1.9A2,2,0,0,1,4.63,20S3.76,18.89,3,18.07a24.06,24.06,0,0,0-2.05-2s1.71,1.79,2.71,3.08c.38.49.71,1,.71,1a2,2,0,0,1-.75.17A2.37,2.37,0,0,1,2.45,20,5.85,5.85,0,0,1,.8,17.77,8,8,0,0,1,.24,15.38Z"/><path class="cls-9" d="M10.37,16.1s-.34.4-.49.63a3.2,3.2,0,0,0-.49,1.21,2,2,0,0,0,.17,1.29,1.14,1.14,0,0,0,.61.49s0-.78,0-1.43a12.12,12.12,0,0,1,.15-1.62s-.07,1.41,0,2.35c0,.36,0,.68,0,.68a1.19,1.19,0,0,0,.39-.2,1.43,1.43,0,0,0,.38-.58A3.58,3.58,0,0,0,11,17.34,4.66,4.66,0,0,0,10.37,16.1Z"/><path class="cls-9" d="M12.55,19.28a4,4,0,0,1,.27-.33,1.74,1.74,0,0,1,.58-.4,1.11,1.11,0,0,1,.69-.06.58.58,0,0,1,.33.27l-.74.16c-.51.14-.84.27-.84.27s.73-.2,1.23-.28l.37-.05a.58.58,0,0,1-.07.22.61.61,0,0,1-.26.27,1.76,1.76,0,0,1-.84.13A2.67,2.67,0,0,1,12.55,19.28Z"/><path class="cls-9" d="M6.42,10s.72,0,1.09.06a4.49,4.49,0,0,1,1.7.57A2.86,2.86,0,0,1,10.41,12a1.51,1.51,0,0,1,0,1.08s-.8-.72-1.5-1.27a16.4,16.4,0,0,0-1.84-1.29s1.55,1.18,2.48,2.07c.36.34.67.67.67.67a1.56,1.56,0,0,1-.55.22,1.85,1.85,0,0,1-.94-.13,4.83,4.83,0,0,1-1.56-1.53A6.53,6.53,0,0,1,6.42,10Z"/><path class="cls-9" d="M6.76,5.53s.69-.5,1.08-.71a5.29,5.29,0,0,1,2-.65,3.34,3.34,0,0,1,2.08.41,1.76,1.76,0,0,1,.74,1s-1.27-.12-2.32-.15a23.38,23.38,0,0,0-2.66.07s2.31,0,3.83.22c.57.07,1.11.17,1.11.17a1.72,1.72,0,0,1-.38.59,2.28,2.28,0,0,1-1,.55,5.85,5.85,0,0,1-2.56-.36A7.61,7.61,0,0,1,6.76,5.53Z"/><path class="cls-9" d="M14.56,10.43s.31-.17.48-.24a2.24,2.24,0,0,1,.87-.18,1.41,1.41,0,0,1,.85.27.76.76,0,0,1,.26.47s-.52-.11-1-.17a10.66,10.66,0,0,0-1.11-.1s1,.13,1.58.28c.24.05.46.12.46.12a.88.88,0,0,1-.19.23.93.93,0,0,1-.43.18A2.4,2.4,0,0,1,15.32,11,3,3,0,0,1,14.56,10.43Z"/><path class="cls-9" d="M14.55,0s.47.62.67,1a4.82,4.82,0,0,1,.63,1.82,3.12,3.12,0,0,1-.34,1.91,1.66,1.66,0,0,1-.93.69s.08-1.16.09-2.11A18.4,18.4,0,0,0,14.56.85s0,2.1-.13,3.48c0,.53-.13,1-.13,1A1.61,1.61,0,0,1,13.75,5a2,2,0,0,1-.51-.88,5.06,5.06,0,0,1,.28-2.33A6.81,6.81,0,0,1,14.55,0Z"/><path class="cls-9" d="M24.8,2.23s.18.24.26.37a1.8,1.8,0,0,1,.24.71,1.19,1.19,0,0,1-.13.74.62.62,0,0,1-.36.26s0-.44,0-.82a7.88,7.88,0,0,0-.05-.93s0,.81-.05,1.35c0,.2-.05.39-.05.39a.61.61,0,0,1-.21-.13.72.72,0,0,1-.2-.34,1.9,1.9,0,0,1,.11-.9A2.5,2.5,0,0,1,24.8,2.23Z"/><path class="cls-9" d="M31.23,2.38s-.65-.16-1-.21a4.16,4.16,0,0,0-1.65.11,2.63,2.63,0,0,0-1.4.9,1.35,1.35,0,0,0-.23,1s.88-.45,1.64-.77a15.63,15.63,0,0,1,1.95-.71s-1.67.69-2.72,1.26c-.4.21-.76.43-.76.43a1.39,1.39,0,0,0,.45.33,1.76,1.76,0,0,0,.87.11,4.47,4.47,0,0,0,1.76-1A6.22,6.22,0,0,0,31.23,2.38Z"/><path class="cls-9" d="M29.38,5.6a6.15,6.15,0,0,1,.12.65,2.78,2.78,0,0,1-.1,1.08,1.76,1.76,0,0,1-.62.9.91.91,0,0,1-.64.14s.32-.58.54-1.07A12,12,0,0,0,29.19,6s-.49,1.08-.88,1.76l-.3.49A1,1,0,0,1,27.8,8a1.1,1.1,0,0,1-.05-.58,2.89,2.89,0,0,1,.68-1.13A3.84,3.84,0,0,1,29.38,5.6Z"/><path class="cls-9" d="M32.64,13s-.7-.08-1.07-.08a4.46,4.46,0,0,0-1.72.36,2.84,2.84,0,0,0-1.33,1.16,1.48,1.48,0,0,0-.1,1s.86-.61,1.61-1.06a17.36,17.36,0,0,1,1.94-1s-1.65,1-2.66,1.73c-.39.29-.74.57-.74.57a1.51,1.51,0,0,0,.52.28A1.84,1.84,0,0,0,30,16a4.78,4.78,0,0,0,1.7-1.31A6.14,6.14,0,0,0,32.64,13Z"/><path class="cls-9" d="M39.41,4.22s-.75.25-1.13.43A5,5,0,0,0,36.7,5.83a3.18,3.18,0,0,0-.81,1.8,1.73,1.73,0,0,0,.4,1.13s.59-1,1.13-1.85a21,21,0,0,1,1.49-2S37.69,6.7,37,8c-.26.47-.48.93-.48.93a1.69,1.69,0,0,0,.66,0,2,2,0,0,0,.94-.45,5.27,5.27,0,0,0,1.11-2.14A7.14,7.14,0,0,0,39.41,4.22Z"/><path class="cls-9" d="M40.87,12.81s.07.55.07.84A3.57,3.57,0,0,1,40.67,15a2.14,2.14,0,0,1-.91,1.06,1.17,1.17,0,0,1-.83.09s.48-.69.83-1.28a13.68,13.68,0,0,0,.81-1.54s-.76,1.31-1.35,2.12c-.23.31-.45.58-.45.58a1.13,1.13,0,0,1-.22-.41,1.39,1.39,0,0,1,0-.73,3.77,3.77,0,0,1,1-1.35A4.83,4.83,0,0,1,40.87,12.81Z"/><path class="cls-9" d="M43.44,15.89s-.23.66-.39,1A4.25,4.25,0,0,1,42,18.28a2.77,2.77,0,0,1-1.61.71,1.46,1.46,0,0,1-1-.35s.92-.53,1.64-1a18.63,18.63,0,0,0,1.77-1.31S41.22,17.4,40.1,18c-.42.23-.83.42-.83.42a1.4,1.4,0,0,1,0-.58,1.85,1.85,0,0,1,.4-.84,4.92,4.92,0,0,1,1.91-1A6.18,6.18,0,0,1,43.44,15.89Z"/><path class="cls-9" d="M34.51,23s.29.49.41.76a3.52,3.52,0,0,1,.32,1.39,2.25,2.25,0,0,1-.4,1.37,1.19,1.19,0,0,1-.74.43s.16-.84.24-1.54a15.61,15.61,0,0,0,.11-1.79s-.16,1.55-.37,2.55c-.09.38-.18.74-.18.74a1.22,1.22,0,0,1-.38-.29,1.5,1.5,0,0,1-.3-.69,3.79,3.79,0,0,1,.38-1.69A5.11,5.11,0,0,1,34.51,23Z"/><path class="cls-9" d="M41.9,22.75a4.87,4.87,0,0,1,.12.78A3.89,3.89,0,0,1,41.74,25a2.43,2.43,0,0,1-1,1.17,1.27,1.27,0,0,1-.91.11s.51-.76.88-1.41a16,16,0,0,0,.87-1.7s-.81,1.44-1.45,2.34c-.24.34-.48.64-.48.64a1.19,1.19,0,0,1-.25-.44,1.59,1.59,0,0,1,0-.81,4,4,0,0,1,1.1-1.49A3.38,3.38,0,0,1,41.9,22.75Z"/><path class="cls-9" d="M44.47,28.13s-.36.58-.58.86a4.31,4.31,0,0,1-1.31,1.1,2.71,2.71,0,0,1-1.67.32,1.44,1.44,0,0,1-.87-.55s1-.3,1.77-.59a18.55,18.55,0,0,0,2-.86s-1.73.67-2.92,1c-.45.13-.87.22-.87.22a1.54,1.54,0,0,1,.1-.56,1.7,1.7,0,0,1,.57-.7,4.46,4.46,0,0,1,2-.51A6.05,6.05,0,0,1,44.47,28.13Z"/><path class="cls-9" d="M42.13,38.34s-.75.27-1.15.37a5,5,0,0,1-2,.06,3.3,3.3,0,0,1-1.77-.91,1.66,1.66,0,0,1-.39-1.13s1.11.43,2.05.73a20.49,20.49,0,0,0,2.41.63s-2.07-.63-3.39-1.19c-.5-.21-.95-.43-.95-.43a1.55,1.55,0,0,1,.49-.44,2,2,0,0,1,1-.24,5.55,5.55,0,0,1,2.21,1A7.21,7.21,0,0,1,42.13,38.34Z"/><text class="cls-10" transform="translate(46.17 60.61) rotate(-8.94)">G</text><text class="cls-11" transform="matrix(1, -0.09, 0.09, 1, 56.35, 58.81)">r</text><text class="cls-12" transform="matrix(1, -0.02, 0.02, 1, 61.81, 56.85)">o</text><text class="cls-13" transform="matrix(0.99, -0.16, 0.16, 0.99, 69.21, 56.11)">w</text><text class="cls-14" transform="translate(81.31 53.39) rotate(-2.42)">y</text><text class="cls-14" transform="translate(88.96 52.71)">o</text><text class="cls-14" transform="translate(95.47 52.71)">u</text><text class="cls-13" transform="matrix(1, 0.02, -0.02, 1, 103.47, 52.63)">r</text><text class="cls-15" transform="translate(113.06 53.38) rotate(2.25)">o</text><text class="cls-13" transform="translate(119.63 54.12) rotate(3.01)">w</text><text class="cls-14" transform="translate(128.65 54.32) rotate(5.01)">n</text><text class="cls-16" transform="translate(141.11 54.33) rotate(4.24)">f</text><text class="cls-13" transform="translate(144.28 56.32) rotate(5.29)">r</text><text class="cls-14" transform="matrix(1, 0.09, -0.09, 1, 150.61, 56.85)">u</text><text class="cls-14" transform="matrix(1, 0.09, -0.09, 1, 157.91, 57.55)">i</text><text class="cls-13" transform="translate(161.92 57.85) rotate(3.08)">t</text><text class="cls-14" transform="matrix(1, 0.03, -0.03, 1, 170.6, 58.71)">i</text><text class="cls-14" transform="translate(174.13 58.7) rotate(3.03)">n</text><text class="cls-17" transform="matrix(1, 0.05, -0.05, 1, 185.61, 59.93)">M</text><text class="cls-18" transform="translate(199.42 60.28)">a</text><text class="cls-18" transform="translate(206.34 60.78)">t</text><text class="cls-18" transform="translate(211.34 60.65)">s</text><text class="cls-19" transform="translate(216.19 60.41) rotate(-1.38)">u</text><text class="cls-19" transform="translate(223.92 60.32) rotate(-3.49)">m</text><text class="cls-19" transform="matrix(1, -0.07, 0.07, 1, 234.25, 59.34)">o</text><text class="cls-19" transform="translate(240.19 58.96) rotate(-6.21)">t</text><text class="cls-19" transform="translate(245.14 58.37) rotate(-11.59)">o</text></svg>